<?xml version="1.0" standalone="no"?>
<!DOCTYPE svg PUBLIC "-//W3C//DTD SVG 1.1//EN" "http://www.w3.org/Graphics/SVG/1.1/DTD/svg11.dtd" >
<svg xmlns="http://www.w3.org/2000/svg">
<metadata>
Generated by SVGconv.
Copyright   : Copyright  1995 ParaGraph Intl.,  1998 ParaType Inc., ParaType Ltd. All rights reserved.
Designer    : Paul Renner,Vladimir Yefimov, Isabella Chaeva 
Foundry     : ParaType Ltd
Foundry URL : http://www.paratype.com
</metadata>
<defs>
<font id="FuturaPTWeb-HeavyObl" horiz-adv-x="576" >
<font-face units-per-em="1000" ascent="982" descent="300" />
<missing-glyph horiz-adv-x="500" />
<glyph unicode="&#32;" horiz-adv-x="233" />
<glyph unicode="&#33;" horiz-adv-x="298" d="M97 223l55 444h152l-55 -444zM64 75q0 38 26.5 64.5q26.5 26.5 64.5 26.5q38 0 64.5 -26.5q26.5 -26.5 26.5 -64.5q0 -38 -26.5 -64.5q-26.5 -26.5 -64.5 -26.5q-38 0 -64.5 26.5t-26.5 64.5z" />
<glyph unicode="&#34;" horiz-adv-x="407" d="M204 399h-93l10 268h140zM388 399h-93l9 268l140 0z" />
<glyph unicode="&#35;" horiz-adv-x="600" d="M606 295l-30 -111h-102l-53 -184h-128l53 184h-89l-53 -184h-128l53 184h-101l31 111h100l27 92h-100l30 110h100l49 170h128l-49 -170h89l49 170h128l-49 -170h101l-30 -110h-101l-27 -92zM403 387h-89l-27 -92l89 0z" />
<glyph unicode="&#36;" horiz-adv-x="600" d="M434 775l-12 -101q9 -1 24.5 -3.5q15.5 -2.5 34.5 -9.5q19 -7 41.5 -20q22.5 -13 46.5 -34l-74 -108q-26 27 -56 39q-30 12 -54 12q-17 0 -34.5 -4.5q-17.5 -4.5 -28.5 -15.5q-9 -8 -14 -20.5q-5 -12.5 -5 -25.5q0 -26 21 -44q8 -7 22 -14.5q14 -7.5 41 -20.5l37 -17q20 -9 43.5 -24.5q23.5 -15.5 41.5 -38.5q33 -42 33 -104q0 -51 -17.5 -91q-17.5 -40 -43.5 -67q-18 -19 -53 -40q-35 -21 -89 -25l-15 -110h-90l15 108q-60 8 -104.5 36q-44.5 28 -73.5 59l79 102q12 -13 26.5 -25.5q14.5 -12.5 29.5 -21.5q18 -11 38 -17.5q20 -6.5 44 -6.5q1 0 9.5 0.5q8.5 0.5 19.5 2.5q11 2 23.5 6q12.5 4 22.5 12q11 9 18.5 24q7.5 15 7.5 35q0 15 -5.5 26q-5.5 11 -16.5 21q-12 11 -28 19.5q-16 8.5 -33 16.5l-33 17q-21 11 -45.5 26.5q-24.5 15.5 -43.5 40.5q-17 23 -24 47.5q-7 24.5 -7 53.5q0 54 18 89.5q18 35.5 38 55.5q23 23 54 38.5q31 15.5 69 20.5l12 101z" />
<glyph unicode="&#37;" horiz-adv-x="830" d="M659 678l68 -15l-475 -677l-67 16zM655 234q-19 0 -34 -5q-15 -5 -29 -18q-14 -14 -21.5 -32q-7.5 -18 -7.5 -37q0 -12 4.5 -25q4.5 -13 12.5 -22q8 -9 21 -16q13 -7 33 -7q18 0 34 6q16 6 30 21q14 14 20 31q6 17 6 34q0 21 -6.5 33.5q-6.5 12.5 -14.5 19.5q-11 11 -24 14q-13 3 -24 3zt0 0zM659 315q13 0 28 -1q15 -1 31.5 -5.5q16.5 -4.5 32.5 -13q16 -8.5 30 -22.5q39 -38 39 -100q0 -33 -11.5 -68.5q-11.5 -35.5 -36.5 -61.5q-16 -17 -33.5 -27.5q-17.5 -10.5 -35.5 -16q-18 -5.5 -35.5 -7q-17.5 -1.5 -33.5 -1.5q-29 0 -61 6.5q-32 6.5 -60 31.5q-15 13 -30 38.5q-15 25.5 -15 68.5q0 35 13 69q13 34 37 58q31 32 70 42q39 10 71 10zt0 0zM284 676q13 0 28 -1q15 -1 31.5 -5.5q16.5 -4.5 32.5 -13q16 -8.5 30 -22.5q39 -38 39 -100q0 -33 -11.5 -68.5q-11.5 -35.5 -36.5 -61.5q-16 -17 -33.5 -27.5q-17.5 -10.5 -35.5 -16q-18 -5.5 -35.5 -7q-17.5 -1.5 -33.5 -1.5q-29 0 -61 6.5q-32 6.5 -60 31.5q-15 13 -30 38.5q-15 25.5 -15 68.5q0 35 13 69q13 34 37 58q31 32 70 42q39 10 71 10zt0 0zM280 595q-19 0 -34 -5q-15 -5 -29 -18q-14 -14 -21.5 -32q-7.5 -18 -7.5 -37q0 -12 4.5 -25q4.5 -13 12.5 -22q8 -9 21 -16q13 -7 33 -7q18 0 34 6q16 6 30 21q14 14 20 31q6 17 6 34q0 21 -6.5 33.5q-6.5 12.5 -14.5 19.5q-11 11 -24 14t-24 3z" />
<glyph unicode="&#38;" horiz-adv-x="744" d="M714 252q-22 -24 -47 -48q-25 -24 -54 -48l123 -156h-188l-50 62q-20 -17 -45.5 -34.5q-25.5 -17.5 -48.5 -25.5q-12 -5 -40 -11q-28 -6 -79 -6q-44 0 -87 9q-43 9 -78 44q-19 19 -33.5 48q-14.5 29 -14.5 70q0 41 13.5 75q13.5 34 35.5 59q24 28 61.5 49q37.5 21 75.5 32q-29 32 -39.5 61q-10.5 29 -10.5 55q0 34 12 69.5q12 35.5 41 64.5q35 36 77.5 48.5q42.5 12.5 84.5 12.5q13 0 30 -1.5q17 -1.5 35 -6q18 -4.5 36.5 -14q18.5 -9.5 34.5 -25.5q15 -14 28.5 -39.5q13.5 -25.5 13.5 -63.5q0 -29 -11 -60.5q-11 -31.5 -39 -60.5q-16 -17 -41 -33.5q-25 -16.5 -51 -28.5l82 -105q27 23 51 46.5q24 23.5 45 46.5zM325 287q-16 -5 -34.5 -16q-18.5 -11 -30.5 -23q-14 -14 -20 -30q-6 -16 -6 -33q0 -17 5.5 -27.5q5.5 -10.5 11.5 -17.5q22 -22 62 -22q19 0 36 5q17 5 31.5 12.5q14.5 7.5 25 14.5q10.5 7 16.5 12zM398 426q12 6 26.5 15.5q14.5 9.5 25.5 20.5q10 10 18.5 25q8.5 15 8.5 35q0 14 -4.5 24.5q-4.5 10.5 -12.5 16.5q-15 13 -41 13q-29 0 -47 -18q-18 -20 -18 -46q0 -17 9 -37.5t35 -48.5z" />
<glyph unicode="&#39;" horiz-adv-x="224" d="M204 399h-93l10 268l140 0z" />
<glyph unicode="&#40;" horiz-adv-x="335" d="M363 686q-28 -45 -48 -87q-20 -42 -37 -88q-27 -73 -45 -156q-18 -83 -18 -185q0 -112 17 -186q17 -74 34 -119l-106 -49q-38 90 -52 172q-14 82 -14 171q0 38 2.5 80.5q2.5 42.5 10.5 90.5q8 48 23 102q15 54 40 116q24 59 50.5 106.5q26.5 47.5 52.5 85.5z" />
<glyph unicode="&#41;" horiz-adv-x="335" d="M248 740q21 -50 33.5 -95q12.5 -45 20 -87q7.5 -42 10 -82.5q2.5 -40.5 2.5 -79.5q0 -37 -2 -78.5q-2 -41.5 -9.5 -88.5q-7.5 -47 -23 -102q-15.5 -55 -41.5 -119q-21 -51 -46 -98q-25 -47 -57 -94l-90 54q28 45 49 89q21 44 37 86q10 27 21 62.5q11 35.5 20.5 80.5q9.5 45 15.5 100q6 55 6 120q0 58 -9.5 126q-9.5 68 -42.5 157z" />
<glyph unicode="&#42;" horiz-adv-x="598" d="M337 615l6 114h99l-23 -114l110 44l19 -93l-114 -26l63 -87l-86 -58l-49 97l-72 -97l-70 58l83 86l-108 26l43 94z" />
<glyph unicode="&#43;" horiz-adv-x="500" d="M73 398h154v154h126v-154h154v-116h-154v-155h-126v155l-154 0z" />
<glyph unicode="&#44;" horiz-adv-x="351" d="M153 154l136 -7l-185 -279l-96 4z" />
<glyph unicode="&#45;" horiz-adv-x="356" d="M89 316h256l-16 -126l-256 0z" />
<glyph unicode="&#46;" horiz-adv-x="278" d="M54 75q0 38 26.5 64.5q26.5 26.5 64.5 26.5q38 0 64.5 -26.5q26.5 -26.5 26.5 -64.5q0 -38 -26.5 -64.5q-26.5 -26.5 -64.5 -26.5q-38 0 -64.5 26.5t-26.5 64.5z" />
<glyph unicode="&#47;" horiz-adv-x="697" d="M594 749l113 -20l-634 -933l-113 20z" />
<glyph unicode="&#48;" horiz-adv-x="600" d="M311 -15q-45 0 -88.5 11.5q-43.5 11.5 -84.5 50.5q-25 24 -41 52.5q-16 28.5 -25 58.5q-9 30 -12.5 61q-3.5 31 -3.5 61q0 55 9.5 102.5q9.5 47.5 25 88q15.5 40.5 36.5 73q21 32.5 45 56.5q45 45 94.5 63.5q49.5 18.5 105.5 18.5q18 0 38.5 -2.5q20.5 -2.5 42.5 -9q22 -6.5 44 -19q22 -12.5 42 -32.5q25 -25 40 -54q15 -29 23 -59.5q8 -30.5 11 -60.5q3 -30 3 -56q0 -29 -4 -70.5q-4 -41.5 -16 -86.5q-12 -45 -35 -91q-23 -46 -62 -84q-22 -22 -43.5 -36q-21.5 -14 -44.5 -22q-23 -8 -47.5 -11q-24.5 -3 -52.5 -3zt0 0zM313 117q43 0 73 31q21 21 35 51q14 30 23 63q9 33 12.5 66.5q3.5 33.5 3.5 62.5q0 12 -1 31.5q-1 19.5 -5.5 40q-4.5 20.5 -13 39.5q-8.5 19 -23.5 31q-10 8 -22 12.5q-12 4.5 -28 4.5q-18 0 -37.5 -7q-19.5 -7 -38.5 -24q-21 -19 -35.5 -46.5q-14.5 -27.5 -24.5 -59.5q-10 -32 -14.5 -66q-4.5 -34 -4.5 -66q0 -12 0.5 -28.5q0.5 -16.5 4 -35q3.5 -18.5 11 -36.5q7.5 -18 20.5 -33q16 -18 33.5 -24.5t31.5 -6.5z" />
<glyph unicode="&#49;" horiz-adv-x="600" d="M297 537h-95l16 130h249l-82 -667l-154 0z" />
<glyph unicode="&#50;" horiz-adv-x="600" d="M238 200q45 45 74.5 77q29.5 32 51.5 60q9 11 19.5 26q10.5 15 19.5 32.5q9 17.5 15.5 36.5q6.5 19 6.5 39q0 20 -7 36q-7 16 -18 26q-14 12 -30 15.5q-16 3.5 -30 3.5q-17 0 -33 -5q-16 -5 -30 -20q-12 -14 -19.5 -37q-7.5 -23 -9.5 -44l-154 0q4 44 21.5 87.5q17.5 43.5 47.5 75.5q40 43 88 58q48 15 99 15q60 0 105 -17q45 -17 73 -44q20 -20 37.5 -54.5q17.5 -34.5 17.5 -87.5q0 -77 -44 -144q-8 -12 -21 -28q-13 -16 -28 -32.5q-15 -16.5 -31 -32.5q-16 -16 -29 -28l-91 -84h211l-17 -130l-495 0z" />
<glyph unicode="&#51;" horiz-adv-x="600" d="M109 467q5 40 22.5 81q17.5 41 46.5 70q20 21 43 33q23 12 46.5 19q23.5 7 45.5 9q22 2 41 2q38 0 66.5 -6q28.5 -6 49 -15q20.5 -9 34 -18.5q13.5 -9.5 20.5 -16.5q22 -21 37 -53q15 -32 15 -78q0 -23 -6 -47.5q-6 -24.5 -23 -47.5q-5 -7 -20 -21q-15 -14 -42 -25q13 -7 27.5 -19q14.5 -12 28.5 -33q24 -37 24 -85q0 -45 -15.5 -89q-15.5 -44 -47.5 -77q-40 -41 -87 -53.5q-47 -12.5 -99 -12.5q-48 0 -99 12.5q-51 12.5 -93 54.5q-28 28 -48 71q-20 43 -24 96l154 0q2 -17 9 -38q7 -21 19 -35q17 -19 37.5 -24q20.5 -5 37.5 -5q17 0 37 5q20 5 37 23q12 13 18 31q6 18 6 35q0 20 -7.5 36q-7.5 16 -18.5 26q-17 15 -38.5 17.5q-21.5 2.5 -38.5 2.5h-9l14 106h10q19 0 39.5 3.5q20.5 3.5 36.5 14.5q13 10 21.5 26.5q8.5 16.5 8.5 37.5q0 21 -8 33.5q-8 12.5 -16 19.5q-21 18 -56 18q-16 0 -31.5 -5q-15.5 -5 -28.5 -18q-11 -12 -18.5 -28.5q-7.5 -16.5 -9.5 -32.5z" />
<glyph unicode="&#52;" horiz-adv-x="600" d="M517 246h80l-15 -122h-80l-15 -124h-148l15 124h-326l11 88l350 455h180zM369 246l31 255l-195 -255z" />
<glyph unicode="&#53;" horiz-adv-x="600" d="M564 537h-232l-32 -88q11 2 21.5 3q10.5 1 22.5 1q53 0 95 -15q42 -15 68 -41q21 -20 38.5 -55q17.5 -35 17.5 -92q0 -60 -19 -108q-19 -48 -50 -80q-25 -26 -52 -41.5q-27 -15.5 -55.5 -23.5q-28.5 -8 -56.5 -10q-28 -2 -54 -2q-25 0 -53 3q-28 3 -58.5 11.5q-30.5 8.5 -63 24q-32.5 15.5 -66.5 40.5l52 137q38 -41 87 -62.5q49 -21.5 93 -21.5q28 0 56 7.5q28 7.5 46 23.5q16 14 26 36.5q10 22.5 10 47.5q0 23 -9.5 43q-9.5 20 -25.5 34q-25 22 -56 27q-31 5 -52 5q-31 0 -65 -7q-34 -7 -74 -28l119 361l338 0z" />
<glyph unicode="&#54;" horiz-adv-x="600" d="M534 646l-183 -201q54 9 103.5 -6.5q49.5 -15.5 83.5 -50.5q33 -35 43.5 -74.5q10.5 -39.5 10.5 -72.5q0 -64 -20.5 -110q-20.5 -46 -51.5 -76q-46 -45 -97 -57.5q-51 -12.5 -105 -12.5q-42 0 -90.5 8.5q-48.5 8.5 -93.5 42.5q-39 30 -59.5 72q-20.5 42 -20.5 98q0 41 9.5 74q9.5 33 26.5 64q20 34 42.5 60q22.5 26 46.5 52l206 226zM314 111q24 0 47 8q23 8 39 24q17 17 25.5 41q8.5 24 8.5 47q0 19 -7.5 38q-7.5 19 -21.5 32q-16 16 -39.5 22.5q-23.5 6.5 -42.5 6.5q-26 0 -47.5 -9.5q-21.5 -9.5 -35.5 -23.5q-14 -14 -23 -34.5q-9 -20.5 -9 -45.5q0 -29 10 -47.5q10 -18.5 19 -27.5q14 -14 33.5 -22.5t43.5 -8.5z" />
<glyph unicode="&#55;" horiz-adv-x="600" d="M410 537h-286l16 130h530l-471 -682l-147 35z" />
<glyph unicode="&#56;" horiz-adv-x="600" d="M460 346q41 -12 71 -40q44 -43 44 -110q0 -48 -16.5 -85q-16.5 -37 -41.5 -62q-22 -22 -46.5 -34.5q-24.5 -12.5 -50 -19q-25.5 -6.5 -50.5 -8.5q-25 -2 -49 -2q-48 0 -94.5 9q-46.5 9 -88.5 42q-41 33 -54.5 71.5q-13.5 38.5 -13.5 68.5q0 40 14 73.5q14 33.5 36 54.5q17 17 43 30q26 13 53 19q-18 10 -31.5 23q-13.5 13 -23.5 27q-25 37 -25 86q0 35 12.5 70q12.5 35 38.5 61q19 20 41.5 32.5q22.5 12.5 45.5 19q23 6.5 45.5 8.5q22.5 2 43.5 2q45 0 88 -10.5q43 -10.5 78 -44.5q28 -26 38 -56.5q10 -30.5 10 -68.5q0 -26 -7 -53.5q-7 -27.5 -30 -53.5q-16 -17 -37.5 -29.5q-21.5 -12.5 -42.5 -19.5zt0 0zM352 410q23 0 38.5 7.5q15.5 7.5 24.5 16.5q11 11 17.5 28q6.5 17 6.5 34q0 14 -6 28.5q-6 14.5 -17 24.5q-21 19 -57 19q-37 0 -60 -23q-11 -11 -18 -27.5q-7 -16.5 -7 -35.5q0 -17 5.5 -28q5.5 -11 12.5 -19q8 -9 22.5 -17q14.5 -8 37.5 -8zt0 0zM319 107q19 0 39 6q20 6 34 20q10 9 18.5 25.5q8.5 16.5 8.5 41.5q0 26 -9.5 43q-9.5 17 -20.5 25q-5 4 -20.5 12q-15.5 8 -42.5 8q-29 0 -47 -9.5q-18 -9.5 -29 -20.5q-7 -7 -15.5 -23.5q-8.5 -16.5 -8.5 -42.5q0 -21 7.5 -36.5q7.5 -15.5 18.5 -25.5q13 -12 31 -17.5t36 -5.5z" />
<glyph unicode="&#57;" horiz-adv-x="600" d="M321 223q-51 -5 -97.5 10q-46.5 15 -80.5 48q-35 33 -46.5 72q-11.5 39 -11.5 80q0 67 22 111q22 44 50 70q22 21 46.5 34q24.5 13 51 20.5q26.5 7.5 53.5 10.5q27 3 53 3q22 0 47.5 -2.5q25.5 -2.5 51 -9q25.5 -6.5 50 -19q24.5 -12.5 45.5 -31.5q10 -10 21.5 -24q11.5 -14 20.5 -33q9 -19 15 -43q6 -24 6 -54q0 -39 -11 -76q-11 -37 -29 -68q-13 -23 -35.5 -50.5q-22.5 -27.5 -60.5 -70.5l-192 -215l-149 35zM357 556q-29 0 -50 -9q-21 -9 -34 -23q-15 -16 -22.5 -39.5q-7.5 -23.5 -7.5 -43.5q0 -18 7 -37.5q7 -19.5 21 -33.5q14 -14 36 -22q22 -8 44 -8q23 0 45 8q22 8 36 22q16 16 25 39q9 23 9 45q0 21 -8 41q-8 20 -23 34q-11 10 -29.5 18.5t-48.5 8.5z" />
<glyph unicode="&#58;" horiz-adv-x="278" d="M48 76q0 38 26.5 64.5q26.5 26.5 64.5 26.5q38 0 64.5 -26.5q26.5 -26.5 26.5 -64.5q0 -38 -26.5 -64.5q-26.5 -26.5 -64.5 -26.5q-38 0 -64.5 26.5q-26.5 26.5 -26.5 64.5zt0 0zM85 370q0 38 26.5 64.5q26.5 26.5 64.5 26.5q38 0 64.5 -26.5q26.5 -26.5 26.5 -64.5q0 -38 -26.5 -64.5q-26.5 -26.5 -64.5 -26.5q-38 0 -64.5 26.5t-26.5 64.5z" />
<glyph unicode="&#59;" horiz-adv-x="354" d="M133 154l136 -7l-185 -279l-96 4zM130 370q0 38 26.5 64.5q26.5 26.5 64.5 26.5q38 0 64.5 -26.5q26.5 -26.5 26.5 -64.5q0 -38 -26.5 -64.5q-26.5 -26.5 -64.5 -26.5q-38 0 -64.5 26.5t-26.5 64.5z" />
<glyph unicode="&#60;" horiz-adv-x="500" d="M492 607v-124l-301 -149l301 -149v-124l-434 219l0 108z" />
<glyph unicode="&#61;" horiz-adv-x="500" d="M73 481h434v-110h-434zM73 309h434v-110l-434 0z" />
<glyph unicode="&#62;" horiz-adv-x="500" d="M522 280l-434 -219v124l301 149l-301 149v124l434 -219z" />
<glyph unicode="&#63;" horiz-adv-x="525" d="M193 214l23 184q13 -3 23 -4q10 -1 23 -1q23 0 50.5 5q27.5 5 48.5 22q11 9 21.5 27q10.5 18 10.5 44q0 22 -7.5 33.5q-7.5 11.5 -11.5 15.5q-7 7 -18.5 12.5q-11.5 5.5 -29.5 5.5q-15 0 -29 -4q-14 -4 -24 -13q-11 -11 -18 -27q-7 -16 -8 -32l-150 0q5 40 23 78.5q18 38.5 45 64.5q39 38 83.5 47.5q44.5 9.5 82.5 9.5q42 0 85 -11.5q43 -11.5 78 -47.5q32 -33 41.5 -69.5q9.5 -36.5 9.5 -65.5q0 -48 -15.5 -84q-15.5 -36 -39.5 -59q-26 -24 -65 -37q-39 -13 -75 -13l-11 -81zM158 75q0 38 26.5 64.5q26.5 26.5 64.5 26.5q38 0 64.5 -26.5q26.5 -26.5 26.5 -64.5q0 -38 -26.5 -64.5q-26.5 -26.5 -64.5 -26.5q-38 0 -64.5 26.5t-26.5 64.5z" />
<glyph unicode="&#64;" horiz-adv-x="734" d="M536 487h84l-65 -203q-2 -8 -5 -19.5q-3 -11.5 -3 -19.5q0 -9 2.5 -14q2.5 -5 5.5 -8q4 -4 10 -5.5q6 -1.5 11 -1.5q10 0 20.5 5q10.5 5 18.5 12q16 13 27 33.5q11 20.5 18.5 43.5q7.5 23 11 46q3.5 23 3.5 41q0 49 -18 86q-18 37 -46 61q-32 27 -75 40.5q-43 13.5 -87 13.5q-66 0 -119 -24q-53 -24 -89 -62q-42 -44 -65 -103q-23 -59 -23 -120q0 -62 20 -103.5q20 -41.5 43 -64.5q21 -21 46 -33.5q25 -12.5 50 -19q25 -6.5 49.5 -8.5q24.5 -2 45.5 -2q35 0 78 6.5q43 6.5 100 26.5l10 -76q-20 -8 -71 -20q-51 -12 -132 -12q-25 0 -55 2.5q-30 2.5 -61 11q-31 8.5 -62 24.5q-31 16 -59 43q-16 15 -31.5 36q-15.5 21 -27.5 48q-12 27 -19 60q-7 33 -7 74q0 85 29 158.5q29 73.5 80 124.5q20 20 46.5 39.5q26.5 19.5 60.5 34.5q34 15 76 24.5q42 9.5 93 9.5q43 0 78 -7.5q35 -7.5 63 -19.5q28 -12 49.5 -28q21.5 -16 37.5 -33q31 -34 49.5 -81q18.5 -47 18.5 -103q0 -12 -2 -37q-2 -25 -9 -54.5q-7 -29.5 -21.5 -60.5q-14.5 -31 -39.5 -56q-25 -25 -52 -35q-27 -10 -59 -10q-41 0 -63 19q-16 13 -21 37q-10 -14 -23 -26.5q-13 -12.5 -27 -20.5q-21 -11 -43.5 -14q-22.5 -3 -31.5 -3q-24 0 -49 7q-25 7 -45 27q-11 12 -23.5 35.5q-12.5 23.5 -12.5 63.5q0 43 18 91q18 48 54 83q24 23 55 36.5q31 13.5 69 13.5q10 0 23 -2q13 -2 26.5 -7.5q13.5 -5.5 26 -15.5q12.5 -10 22.5 -27zM386 225q17 0 30.5 6q13.5 6 25.5 17q23 20 34 47.5q11 27.5 11 53.5q0 9 -2.5 21q-2.5 12 -12.5 23q-6 6 -16 11.5q-10 5.5 -27 5.5q-34 0 -60 -25q-21 -20 -32 -46q-11 -26 -11 -51q0 -18 5.5 -29.5q5.5 -11.5 12.5 -18.5q17 -15 42 -15z" />
<glyph unicode="&#65;" horiz-adv-x="677" d="M483 126h-252l-63 -126h-166l352 667h142l179 -667h-158zM455 244l-54 235l-112 -235z" />
<glyph unicode="&#66;" horiz-adv-x="594" d="M152 667h213q34 0 74.5 -7.5q40.5 -7.5 72.5 -38.5q18 -17 30.5 -46q12.5 -29 12.5 -68q0 -62 -31 -104q-17 -23 -35 -34.5q-18 -11.5 -35 -16.5q26 -6 44.5 -17q18.5 -11 31.5 -23q23 -23 33 -48.5q10 -25.5 10 -57.5q0 -54 -17 -88.5q-17 -34.5 -37 -54.5q-20 -20 -44 -32.5q-24 -12.5 -50 -19q-26 -6.5 -53.5 -9q-27.5 -2.5 -53.5 -2.5h-94h-154zM273 396h31q20 0 44 4q24 4 41 21q11 11 17 27q6 16 6 33q0 20 -7 32q-7 12 -14 18q-14 11 -32.5 13.5q-18.5 2.5 -35.5 2.5h-32zM239 120h56q11 0 24.5 1q13.5 1 27.5 3.5q14 2.5 26.5 7.5q12.5 5 21.5 13q7 6 15.5 21q8.5 15 8.5 43q0 11 -3.5 25q-3.5 14 -14.5 25q-8 8 -20 12.5q-12 4.5 -24 7q-12 2.5 -22.5 3q-10.5 0.5 -15.5 0.5l-60 0z" />
<glyph unicode="&#67;" horiz-adv-x="605" d="M567 21q-8 -4 -22.5 -10q-14.5 -6 -34.5 -12q-20 -6 -46.5 -10q-26.5 -4 -58.5 -4q-47 0 -84.5 9q-37.5 9 -66.5 22.5q-29 13.5 -50 29q-21 15.5 -34 28.5q-16 16 -32 38q-16 22 -29 50.5q-13 28.5 -21 63.5q-8 35 -8 79q0 88 29.5 157q29.5 69 76.5 116q42 42 108.5 73q66.5 31 158.5 31q39 0 70 -5.5q31 -5.5 54.5 -13q23.5 -7.5 39.5 -16q16 -8.5 25 -13.5l-19 -163q-10 10 -25 22q-15 12 -35.5 22q-20.5 10 -47 16.5q-26.5 6.5 -59.5 6.5q-48 0 -87 -14q-39 -14 -71 -49q-31 -33 -45.5 -75q-14.5 -42 -14.5 -82q0 -42 14.5 -78q14.5 -36 37.5 -59q23 -23 59 -37.5q36 -14.5 82 -14.5q50 0 89 17.5q39 17.5 67 40.5z" />
<glyph unicode="&#68;" horiz-adv-x="685" d="M347 667q26 0 58.5 -2.5q32.5 -2.5 67 -11.5q34.5 -9 68 -26q33.5 -17 61.5 -45q33 -33 56.5 -88q23.5 -55 23.5 -134q0 -57 -11.5 -101.5q-11.5 -44.5 -28 -77.5q-16.5 -33 -34 -55q-17.5 -22 -30.5 -34q-58 -55 -135 -73.5q-77 -18.5 -168 -18.5h-50h-155l82 667zM240 130h47q17 0 38 1q21 1 43.5 6.5q22.5 5.5 45.5 15.5q23 10 43 28q29 26 48 70.5q19 44.5 19 104.5q0 45 -13 79q-13 34 -35 55q-24 23 -62 35q-38 12 -77 12l-47 0z" />
<glyph unicode="&#69;" horiz-adv-x="502" d="M504 537h-218l-16 -129h210l-16 -130h-210l-18 -148h222l-16 -130h-226h-146l82 667l368 0z" />
<glyph unicode="&#70;" horiz-adv-x="483" d="M507 537h-216l-16 -129h200l-16 -130h-200l-35 -278h-154l83 667l370 0z" />
<glyph unicode="&#71;" horiz-adv-x="767" d="M447 364h312q-2 -63 -13.5 -110.5q-11.5 -47.5 -27.5 -82q-16 -34.5 -33 -57q-17 -22.5 -29 -35.5q-29 -30 -59 -48q-30 -18 -61.5 -28.5q-31.5 -10.5 -63 -14q-31.5 -3.5 -62.5 -3.5q-32 0 -64 4.5q-32 4.5 -63.5 15q-31.5 10.5 -61 28.5q-29.5 18 -56.5 46q-26 27 -42.5 56.5q-16.5 29.5 -26 59.5q-9.5 30 -13 59q-3.5 29 -3.5 56q0 94 29.5 160q29.5 66 70.5 109q31 33 64.5 53q33.5 20 68 31.5q34.5 11.5 70 15q35.5 3.5 70.5 3.5q45 0 94 -10q49 -10 94 -39q33 -22 61 -54.5q28 -32.5 47 -65.5l-142 -75q-9 20 -25 41q-16 21 -37 35q-26 18 -53 23q-27 5 -49 5q-41 0 -75 -12q-34 -12 -65 -44q-33 -35 -49 -80.5q-16 -45.5 -16 -89.5q0 -38 14 -77.5q14 -39.5 41 -65.5q32 -32 69 -40q37 -8 68 -8q23 0 52 6q29 6 54 24q18 13 33.5 35q15.5 22 23.5 51l-161 0z" />
<glyph unicode="&#72;" horiz-adv-x="720" d="M275 417h266l31 250h154l-82 -667h-154l35 287h-266l-35 -287h-154l82 667l154 0z" />
<glyph unicode="&#73;" horiz-adv-x="306" d="M309 667l-82 -667h-154l82 667z" />
<glyph unicode="&#74;" horiz-adv-x="415" d="M421 667l-56 -453q-2 -18 -5.5 -41q-3.5 -23 -10.5 -47.5q-7 -24.5 -19 -48.5q-12 -24 -33 -43q-18 -17 -37.5 -26.5q-19.5 -9.5 -39.5 -14.5q-20 -5 -38.5 -6.5q-18.5 -1.5 -33.5 -1.5q-26 0 -52.5 4q-26.5 4 -53.5 20q-41 24 -67 68l105 96q4 -11 10 -21q6 -10 14 -17q6 -5 16 -9.5q10 -4.5 24 -4.5q23 0 39 14q13 11 19 30.5q6 19.5 9 46.5l56 455z" />
<glyph unicode="&#75;" horiz-adv-x="670" d="M272 388l244 279h184l-291 -323l247 -344h-194l-201 302l-37 -302h-154l82 667l154 0z" />
<glyph unicode="&#76;" horiz-adv-x="448" d="M306 667l-66 -537h208l-16 -130h-209h-153l82 667z" />
<glyph unicode="&#77;" horiz-adv-x="886" d="M42 0l190 667h127l114 -399l216 399h131l24 -667h-154l-4 398l-213 -398h-58l-117 398l-102 -398z" />
<glyph unicode="&#78;" horiz-adv-x="796" d="M70 0l83 667h134l307 -434l54 434h154l-82 -667h-134l-309 436l-53 -436z" />
<glyph unicode="&#79;" horiz-adv-x="810" d="M464 682q48 0 86.5 -7.5q38.5 -7.5 69.5 -20q31 -12.5 53.5 -28q22.5 -15.5 39.5 -31.5q43 -42 68.5 -102.5q25.5 -60.5 25.5 -134.5q0 -36 -6.5 -72.5q-6.5 -36.5 -19 -71.5q-12.5 -35 -32 -67q-19.5 -32 -45.5 -59q-32 -32 -66.5 -52.5q-34.5 -20.5 -70.5 -31.5q-36 -11 -71 -15q-35 -4 -68 -4q-31 0 -63.5 3.5q-32.5 3.5 -65 14q-32.5 10.5 -64 29q-31.5 18.5 -61.5 48.5q-17 18 -34 41q-17 23 -30.5 52q-13.5 29 -21.5 64q-8 35 -8 76q0 88 31 155.5q31 67.5 79 112.5q32 30 66.5 50q34.5 20 70 31q35.5 11 70.5 15.5q35 4.5 67 4.5zt0 0zM458 540q-98 0 -159 -64q-29 -31 -45 -71q-16 -40 -16 -82q0 -46 15.5 -81.5q15.5 -35.5 38.5 -58.5q34 -35 72.5 -45.5q38.5 -10.5 73.5 -10.5q17 0 35.5 2q18.5 2 37.5 8q19 6 38.5 17q19.5 11 37.5 30q27 28 44.5 70q17.5 42 17.5 94q0 32 -10 70q-10 38 -43 70q-33 32 -70 42t-68 10z" />
<glyph unicode="&#80;" horiz-adv-x="572" d="M377 667q18 0 39.5 -1q21.5 -1 44.5 -6.5q23 -5.5 46 -17q23 -11.5 43 -31.5q23 -23 38.5 -57.5q15.5 -34.5 15.5 -85.5q0 -56 -17.5 -101.5q-17.5 -45.5 -47.5 -73.5q-11 -11 -28 -21.5q-17 -10.5 -41 -18.5q-24 -8 -55.5 -13.5q-31.5 -5.5 -73.5 -5.5h-88l-29 -234h-154l82 667zM268 360h55q25 0 51 4.5q26 4.5 46 24.5q17 17 21.5 36.5q4.5 19.5 4.5 32.5q0 14 -4 29.5q-4 15.5 -18 28.5q-18 17 -44 21q-26 4 -43 4l-46 0z" />
<glyph unicode="&#81;" horiz-adv-x="813" d="M593 21q-43 -20 -83 -27.5q-40 -7.5 -85 -7.5q-72 0 -135.5 20.5q-63.5 20.5 -117.5 74.5q-43 43 -67.5 100q-24.5 57 -24.5 131q0 86 29.5 154.5q29.5 68.5 76.5 114.5q31 30 65.5 50q34.5 20 70.5 31q36 11 71.5 15.5q35.5 4.5 68.5 4.5q30 0 64 -4q34 -4 68 -14.5q34 -10.5 67 -29q33 -18.5 62 -47.5q49 -49 68 -107q19 -58 19 -120q0 -49 -9.5 -89q-9.5 -40 -23.5 -72q-17 -38 -38 -64q-21 -26 -48 -46l86 -107l-138 -21zM599 201q33 35 43 75q10 40 10 68q0 38 -14.5 77.5q-14.5 39.5 -43.5 67.5q-19 18 -53 34.5q-34 16.5 -87 16.5q-32 0 -57 -6.5q-25 -6.5 -44.5 -16q-19.5 -9.5 -33.5 -20.5q-14 -11 -23 -21q-26 -29 -42 -69q-16 -40 -16 -87q0 -80 50 -134q34 -36 71.5 -47.5q37.5 -11.5 76.5 -11.5q20 0 35 2.5q15 2.5 32 11.5l-108 126l139 18z" />
<glyph unicode="&#82;" horiz-adv-x="607" d="M361 667q24 0 47.5 -2q23.5 -2 46 -8q22.5 -6 43.5 -18q21 -12 40 -32q17 -18 32.5 -51q15.5 -33 15.5 -85q0 -48 -15 -84.5q-15 -36.5 -40 -61.5q-22 -21 -50 -35q-28 -14 -56 -19l172 -271h-180l-161 263l-32 -263h-154l82 667zM268 364h38q19 0 44.5 4q25.5 4 45.5 20q20 16 27 36.5q7 20.5 7 41.5q0 16 -6 34q-6 18 -26 31q-15 10 -36.5 13q-21.5 3 -47.5 3l-23 0z" />
<glyph unicode="&#83;" horiz-adv-x="550" d="M477 504q-32 29 -60.5 38.5q-28.5 9.5 -51.5 9.5q-14 0 -32 -3q-18 -3 -31 -14q-11 -8 -17 -21q-6 -13 -6 -27q0 -15 6 -26q6 -11 17 -19q11 -9 25.5 -16.5q14.5 -7.5 39.5 -18.5l39 -18q24 -11 46 -25.5q22 -14.5 42 -38.5q18 -23 26 -47.5q8 -24.5 8 -56.5q0 -53 -19 -97.5q-19 -44.5 -48 -73.5q-41 -40 -90.5 -52.5q-49.5 -12.5 -100.5 -12.5q-37 0 -68 6q-31 6 -65 24q-25 14 -48 32.5q-23 18.5 -41 38.5l86 110q11 -14 26 -28.5q15 -14.5 30 -24.5q16 -10 36 -16q20 -6 42 -6q17 0 38.5 5q21.5 5 35.5 16q28 22 28 62q0 18 -6.5 29q-6.5 11 -12.5 17q-4 4 -15.5 11.5q-11.5 7.5 -37.5 18.5l-39 16q-4 1 -15 6q-11 5 -24.5 12.5q-13.5 7.5 -28 18q-14.5 10.5 -26.5 22.5q-24 25 -34 53q-10 28 -10 60q0 52 18 89.5q18 37.5 42 61.5q41 40 89 51.5q48 11.5 91 11.5q43 0 91.5 -12.5q48.5 -12.5 101.5 -53.5z" />
<glyph unicode="&#84;" horiz-adv-x="460" d="M370 537l-66 -537h-154l66 537h-145l16 130h444l-16 -130z" />
<glyph unicode="&#85;" horiz-adv-x="710" d="M305 667l-44 -364q-2 -16 -3.5 -26.5q-1.5 -10.5 -1.5 -31.5q0 -20 5 -43.5q5 -23.5 24 -42.5q14 -13 35.5 -21.5q21.5 -8.5 52.5 -8.5q38 0 61.5 10q23.5 10 36.5 23q12 12 20 28q8 16 13 33.5q5 17.5 7.5 34.5q2.5 17 4.5 31l46 378h154l-48 -388q-4 -30 -8.5 -60q-4.5 -30 -12.5 -58.5q-8 -28.5 -22 -54.5q-14 -26 -36 -49q-25 -26 -54.5 -40.5q-29.5 -14.5 -59.5 -21.5q-30 -7 -57 -8.5q-27 -1.5 -48 -1.5q-25 0 -52.5 2q-27.5 2 -55 9.5q-27.5 7.5 -54 21q-26.5 13.5 -49.5 36.5q-32 31 -45.5 69q-13.5 38 -13.5 85q0 11 1 25q1 14 2 28.5q1 14.5 2.5 28q1.5 13.5 2.5 23.5l43 354z" />
<glyph unicode="&#86;" horiz-adv-x="678" d="M243 667l117 -427l221 427h172l-364 -667h-106l-200 667z" />
<glyph unicode="&#87;" horiz-adv-x="1002" d="M239 667l88 -442l197 442h106l87 -442l196 442h164l-308 -667h-132l-89 405l-189 -405h-132l-144 667z" />
<glyph unicode="&#88;" horiz-adv-x="686" d="M296 354l-169 313h181l87 -190l133 190h189l-245 -313l201 -354h-181l-119 231l-177 -231l-189 0z" />
<glyph unicode="&#89;" horiz-adv-x="632" d="M274 311l-195 356h176l109 -207l159 207h188l-283 -356l-38 -311l-154 0z" />
<glyph unicode="&#90;" horiz-adv-x="616" d="M292 130h282l-16 -130h-539l382 537h-264l16 130l520 0z" />
<glyph unicode="&#91;" horiz-adv-x="357" d="M302 631l-87 -717h92l-12 -98h-94h-120l112 913h214l-13 -98z" />
<glyph unicode="&#92;" horiz-adv-x="579" d="M471 -204l-406 933l113 20l406 -933z" />
<glyph unicode="&#93;" horiz-adv-x="357" d="M132 729h214l-112 -913h-124h-90l12 98h92l87 717l-92 0z" />
<glyph unicode="&#94;" horiz-adv-x="496" d="M174 333h-132l161 334h165l161 -334h-132l-112 237z" />
<glyph unicode="&#95;" horiz-adv-x="500" d="M0 -66h500v-118l-500 0z" />
<glyph unicode="&#96;" horiz-adv-x="500" d="M168 650l103 65l103 -152l-71 -48z" />
<glyph unicode="&#97;" horiz-adv-x="598" d="M448 446h144l-55 -446h-144l11 51q-12 -14 -28.5 -28q-16.5 -14 -34.5 -22q-23 -11 -46.5 -13.5q-23.5 -2.5 -36.5 -2.5q-42 0 -75.5 12q-33.5 12 -62.5 43q-25 26 -42.5 66q-17.5 40 -17.5 98q0 62 20 110.5q20 48.5 52 81.5q35 35 76 50q41 15 88 15q20 0 42.5 -3q22.5 -3 44.5 -14q13 -6 29.5 -18.5q16.5 -12.5 31.5 -33.5zM327 337q-52 0 -85 -33q-15 -15 -24.5 -38q-9.5 -23 -9.5 -51q0 -28 9 -46.5q9 -18.5 20 -29.5q16 -17 35 -23.5q19 -6.5 41 -6.5q31 0 51 9.5q20 9.5 31 20.5q20 19 29 45q9 26 9 51q0 24 -8.5 44q-8.5 20 -22.5 33q-10 9 -28 17t-47 8z" />
<glyph unicode="&#98;" horiz-adv-x="602" d="M253 396q5 7 19 21q14 14 36 25q21 11 42.5 15q21.5 4 44.5 4q41 0 74 -11q33 -11 61 -37q20 -18 32.5 -39q12.5 -21 19.5 -42.5q7 -21.5 9.5 -42.5q2.5 -21 2.5 -39q0 -62 -19 -114q-19 -52 -54 -88q-36 -37 -76.5 -50q-40.5 -13 -88.5 -13q-21 0 -46 4q-25 4 -48 17q-23 13 -36.5 28.5q-13.5 15.5 -17.5 20.5l-4 -55h-144l91 729h144zM344 337q-30 0 -50.5 -9.5q-20.5 -9.5 -32.5 -21.5q-16 -16 -26.5 -39.5q-10.5 -23.5 -10.5 -52.5q0 -32 10.5 -50.5q10.5 -18.5 18.5 -26.5q13 -12 32 -20q19 -8 41 -8q20 0 42.5 8q22.5 8 39.5 25q18 17 28 43q10 26 10 50q0 46 -31 75q-11 11 -28.5 19t-42.5 8z" />
<glyph unicode="&#99;" horiz-adv-x="431" d="M428 301q-5 4 -13.5 10.5q-8.5 6.5 -21 12.5q-12.5 6 -29 10.5q-16.5 4.5 -36.5 4.5q-38 0 -58.5 -13q-20.5 -13 -28.5 -21q-17 -18 -25 -42q-8 -24 -8 -47q0 -27 9 -46.5q9 -19.5 23 -32.5q31 -30 78 -30q29 0 52 11q23 11 39 25v-132q-51 -17 -80.5 -21.5q-29.5 -4.5 -53.5 -4.5q-45 0 -82.5 12.5q-37.5 12.5 -72.5 49.5q-27 29 -43.5 69q-16.5 40 -16.5 92q0 54 18 100.5q18 46.5 52 81.5q29 29 74 50q45 21 111 21q34 0 66 -6.5q32 -6.5 64 -22.5z" />
<glyph unicode="&#100;" horiz-adv-x="602" d="M482 729h144l-90 -729h-143l8 51q-14 -20 -29.5 -31.5q-15.5 -11.5 -29.5 -18.5q-23 -11 -47.5 -13.5q-24.5 -2.5 -38.5 -2.5q-41 0 -74 12q-33 12 -61 39q-27 27 -44 67.5q-17 40.5 -17 94.5q0 55 19 108q19 53 58 92q35 35 76.5 49q41.5 14 83.5 14q12 0 29.5 -2q17.5 -2 37 -9.5q19.5 -7.5 39.5 -21q20 -13.5 38 -36.5zM326 337q-32 0 -51.5 -11q-19.5 -11 -30.5 -22q-17 -17 -26.5 -40q-9.5 -23 -9.5 -51q0 -29 10 -47.5q10 -18.5 21 -29.5q11 -11 29 -19q18 -8 45 -8q29 0 49.5 10q20.5 10 33.5 24q17 17 26 43q9 26 9 49q0 26 -9.5 44q-9.5 18 -19.5 28q-11 11 -29.5 20.5t-46.5 9.5z" />
<glyph unicode="&#101;" horiz-adv-x="542" d="M399 283q-2 16 -9.5 32q-7.5 16 -19.5 26q-12 10 -28.5 14q-16.5 4 -30.5 4q-26 0 -42.5 -9q-16.5 -9 -25.5 -18q-8 -9 -15 -21.5q-7 -12.5 -10 -27.5zM204 195q-1 -17 4 -35.5q5 -18.5 14 -31.5q14 -20 33 -25.5q19 -5.5 36 -5.5q13 0 28 2q15 2 29 11q10 7 18 18q8 11 13 22l145 -12q-14 -34 -35.5 -63.5q-21.5 -29.5 -45.5 -47.5q-19 -14 -39.5 -22.5q-20.5 -8.5 -40.5 -13q-20 -4.5 -39 -5.5q-19 -1 -34 -1q-21 0 -43 2q-22 2 -44.5 8q-22.5 6 -44.5 18q-22 12 -42 32q-32 32 -44 71.5q-12 39.5 -12 84.5q0 37 7 67.5q7 30.5 18 55q11 24.5 24.5 43.5q13.5 19 27.5 32q41 38 88 50q47 12 89 12q57 0 99 -16q42 -16 68 -41q22 -22 34.5 -50q12.5 -28 18 -56.5q5.5 -28.5 5.5 -55.5q0 -27 -2 -47z" />
<glyph unicode="&#102;" horiz-adv-x="326" d="M246 330l-40 -330h-144l40 330h-52l16 116h52l10 97q1 15 4 33.5q3 18.5 9 38q6 19.5 16.5 39.5q10.5 20 27.5 37q18 18 48 33.5q30 15.5 78 15.5q17 0 40.5 -3.5q23.5 -3.5 54.5 -14.5l-16 -124q-12 9 -25.5 13.5q-13.5 4.5 -25.5 4.5q-30 0 -45 -17q-2 -2 -11 -16.5q-9 -14.5 -13 -49.5l-10 -87h114l-14 -116z" />
<glyph unicode="&#103;" horiz-adv-x="595" d="M445 446h144l-56 -448q-5 -39 -18.5 -83q-13.5 -44 -48.5 -79q-22 -22 -48 -35q-26 -13 -52 -19.5q-26 -6.5 -51 -8.5q-25 -2 -44 -2q-45 0 -90.5 10.5q-45.5 10.5 -82.5 45.5q-23 23 -40 54.5q-17 31.5 -22 67.5l154 0q3 -12 10 -24q7 -12 17 -20q12 -10 28.5 -14q16.5 -4 34.5 -4q33 0 52 11.5q19 11.5 27 21.5q14 16 21 39.5q7 23.5 9 43.5l6 48q-15 -21 -32.5 -33.5q-17.5 -12.5 -36 -19q-18.5 -6.5 -36 -8.5q-17.5 -2 -32.5 -2q-34 0 -68.5 8.5q-34.5 8.5 -69.5 44.5q-23 24 -41.5 63q-18.5 39 -18.5 99q0 59 19 108.5q19 49.5 54 84.5q64 65 160 65q12 0 29 -1.5q17 -1.5 36.5 -8.5q19.5 -7 40.5 -21q21 -14 41 -38zM320 336q-30 0 -49 -9q-19 -9 -30 -20q-15 -15 -24 -40q-9 -25 -9 -50q0 -21 7.5 -42.5q7.5 -21.5 22.5 -35.5q14 -13 33.5 -20q19.5 -7 38.5 -7q20 0 42 7q22 7 37 22q17 16 27 43q10 27 10 52q0 21 -8 41q-8 20 -21 32q-11 11 -29 19t-48 8z" />
<glyph unicode="&#104;" horiz-adv-x="571" d="M294 729l-42 -332q15 16 29.5 26q14.5 10 25.5 16q24 13 45 16q21 3 46 3q26 0 56.5 -6.5q30.5 -6.5 56.5 -31.5q13 -13 20.5 -27q7.5 -14 11.5 -28.5q4 -14.5 5 -27.5q1 -13 1 -23q0 -11 -1 -30q-1 -19 -6 -55l-27 -229h-144l24 193q5 35 5.5 51q0.5 16 0.5 21q0 13 -3.5 27.5q-3.5 14.5 -14.5 26.5q-12 12 -26.5 15.5q-14.5 3.5 -24.5 3.5q-20 0 -36.5 -5q-16.5 -5 -30.5 -19q-20 -20 -26.5 -48q-6.5 -28 -8.5 -46l-26 -220h-144l90 729z" />
<glyph unicode="&#105;" horiz-adv-x="276" d="M264 446l-55 -446h-144l55 446zM127 636q0 35 24.5 59.5q24.5 24.5 59.5 24.5q35 0 59.5 -24.5q24.5 -24.5 24.5 -59.5q0 -35 -24.5 -59.5q-24.5 -24.5 -59.5 -24.5q-35 0 -59.5 24.5t-24.5 59.5z" />
<glyph unicode="&#106;" horiz-adv-x="276" d="M264 446l-85 -675h-144l85 675zM127 636q0 35 24.5 59.5q24.5 24.5 59.5 24.5q35 0 59.5 -24.5q24.5 -24.5 24.5 -59.5q0 -35 -24.5 -59.5q-24.5 -24.5 -59.5 -24.5q-35 0 -59.5 24.5t-24.5 59.5z" />
<glyph unicode="&#107;" horiz-adv-x="566" d="M295 729l-55 -447l164 164h192l-219 -205l202 -241h-185l-164 196l-26 -196h-144l91 729z" />
<glyph unicode="&#108;" horiz-adv-x="264" d="M294 729l-90 -729h-144l90 729z" />
<glyph unicode="&#109;" horiz-adv-x="843" d="M111 446h144l-8 -52q12 17 26 28q14 11 27 18q8 4 27.5 10.5q19.5 6.5 48.5 6.5q26 0 46.5 -6q20.5 -6 34.5 -16q7 -5 21.5 -19q14.5 -14 24.5 -41q5 7 19.5 25q14.5 18 39.5 33q23 14 47.5 19q24.5 5 47.5 5q24 0 57 -7q33 -7 62 -34q20 -20 29.5 -42q9.5 -22 12 -44.5q2.5 -22.5 0.5 -45.5q-2 -23 -5 -44l-29 -240h-144l26 215q3 27 4 38q1 11 1 17q0 11 -3.5 25.5q-3.5 14.5 -14.5 25.5q-7 7 -18 11.5q-11 4.5 -25 4.5q-17 0 -31 -6q-14 -6 -24 -16q-11 -11 -21.5 -34q-10.5 -23 -15.5 -66l-26 -215h-144l27 220q2 14 3 25.5q1 11.5 1 23.5q0 11 -2.5 25.5q-2.5 14.5 -13.5 25.5q-8 8 -21 12.5q-13 4.5 -25 4.5q-13 0 -27.5 -5q-14.5 -5 -27.5 -18q-20 -21 -26.5 -49q-6.5 -28 -9.5 -52l-26 -213l-144 0z" />
<glyph unicode="&#110;" horiz-adv-x="567" d="M255 446l-7 -49q25 26 55 42q24 13 44.5 16q20.5 3 43.5 3q28 0 59 -6.5q31 -6.5 57 -31.5q13 -13 20.5 -27q7.5 -14 11.5 -28.5q4 -14.5 5 -27.5q1 -13 1 -23q0 -11 -1 -30q-1 -19 -6 -55l-27 -229h-144l24 193q5 35 5.5 51q0.5 16 0.5 21q0 13 -3.5 27.5q-3.5 14.5 -14.5 26.5q-12 12 -27 15.5q-15 3.5 -26 3.5q-19 0 -35 -5q-16 -5 -30 -19q-10 -10 -16 -22.5q-6 -12.5 -10 -25.5q-4 -13 -6 -25q-2 -12 -3 -21l-26 -220h-144l55 446z" />
<glyph unicode="&#111;" horiz-adv-x="592" d="M337 461q54 0 104 -18q50 -18 83 -51q26 -26 43 -64q17 -38 17 -87q0 -49 -18.5 -98q-18.5 -49 -53.5 -85q-24 -24 -49.5 -38.5q-25.5 -14.5 -52 -22q-26.5 -7.5 -53 -10q-26.5 -2.5 -50.5 -2.5q-21 0 -45 2q-24 2 -48 9q-24 7 -48 20.5q-24 13.5 -45 35.5q-26 27 -43.5 67q-17.5 40 -17.5 90q0 49 18 95q18 46 54 81q37 36 90 56q53 20 115 20zt0 0zM315 107q27 0 48.5 9q21.5 9 35.5 23q19 18 28 43.5q9 25.5 9 51.5q0 26 -8.5 45.5q-8.5 19.5 -21.5 31.5q-14 14 -36 21q-22 7 -42 7q-20 0 -41.5 -7.5q-21.5 -7.5 -38.5 -23.5q-20 -18 -30 -43.5q-10 -25.5 -10 -51.5q0 -23 8 -42.5q8 -19.5 21 -33.5q11 -11 30 -20.5t48 -9.5z" />
<glyph unicode="&#112;" horiz-adv-x="598" d="M174 -229h-144l83 675h144l-8 -52q14 17 28.5 28q14.5 11 27.5 18q22 11 44 16q22 5 48 5q52 0 84.5 -16q32.5 -16 50.5 -33q27 -27 43 -71q16 -44 16 -96q0 -64 -21 -115.5q-21 -51.5 -54 -84.5q-33 -33 -70 -46.5q-37 -13.5 -81 -13.5q-24 0 -49 3.5q-25 3.5 -48 15.5q-14 8 -29 20q-15 12 -29 31zM341 337q-50 0 -84 -34q-20 -20 -28 -42q-8 -22 -8 -48q0 -16 5 -36q5 -20 22 -37q13 -14 32.5 -22.5q19.5 -8.5 42.5 -8.5q22 0 43 8q21 8 37 23q18 17 29 44q11 27 11 52q0 21 -8.5 42q-8.5 21 -22.5 33q-14 13 -33 19.5t-38 6.5z" />
<glyph unicode="&#113;" horiz-adv-x="598" d="M446 446h144l-83 -675h-144l34 276q-24 -28 -57 -45q-19 -9 -40.5 -13q-21.5 -4 -43.5 -4q-52 0 -85 17.5q-33 17.5 -53 37.5q-10 10 -20 24.5q-10 14.5 -18.5 34.5q-8.5 20 -14 46q-5.5 26 -5.5 58q0 65 21 114.5q21 49.5 53 81.5q36 37 77.5 49.5q41.5 12.5 87.5 12.5q23 0 42 -3.5q19 -3.5 39 -14.5q20 -10 34.5 -23q14.5 -13 25.5 -28zM328 337q-22 0 -43.5 -7.5q-21.5 -7.5 -40.5 -26.5q-15 -15 -25.5 -37.5q-10.5 -22.5 -10.5 -51.5q0 -23 7.5 -43q7.5 -20 19.5 -33q27 -29 73 -29q25 0 45.5 8.5q20.5 8.5 34.5 21.5q20 17 30 43q10 26 10 55q0 23 -8 42q-8 19 -20 31q-11 11 -28.5 19t-43.5 8z" />
<glyph unicode="&#114;" horiz-adv-x="384" d="M111 446h144l-13 -66q11 21 25.5 35.5q14.5 14.5 30.5 23.5q21 11 42 14.5q21 3.5 33 3.5q18 0 33 -2q15 -2 26 -5l-28 -134q-11 5 -26.5 10q-15.5 5 -36.5 5q-27 0 -45 -8.5q-18 -8.5 -29 -18.5q-19 -18 -28.5 -48q-9.5 -30 -14.5 -66l-24 -190l-144 0z" />
<glyph unicode="&#115;" horiz-adv-x="434" d="M367 327q-15 11 -36.5 20.5q-21.5 9.5 -47.5 9.5q-11 0 -23 -2.5q-12 -2.5 -20 -9.5q-10 -8 -10 -22q0 -6 3 -12.5q3 -6.5 11 -11.5q2 -2 9 -4.5q7 -2.5 26 -7.5l33 -9q17 -5 37.5 -13.5q20.5 -8.5 39.5 -28.5q33 -33 33 -85q0 -42 -14 -69q-14 -27 -28 -41q-18 -19 -39.5 -30q-21.5 -11 -42.5 -17q-21 -6 -40.5 -7.5q-19.5 -1.5 -34.5 -1.5q-29 0 -57.5 4q-28.5 4 -58.5 18q-19 8 -36 20q-17 12 -33 26l61 97q12 -11 26.5 -21q14.5 -10 28.5 -16q4 -2 21.5 -8q17.5 -6 40.5 -6q27 0 44 10q18 10 18 29q0 11 -4.5 17.5q-4.5 6.5 -9.5 10.5q-7 5 -16.5 7.5q-9.5 2.5 -18.5 5.5l-32 10q-18 5 -38.5 14.5q-20.5 9.5 -36.5 25.5q-8 9 -19 28.5q-11 19.5 -11 51.5q0 32 12 59q12 27 30 45q17 17 37.5 26.5q20.5 9.5 41 14.5q20.5 5 38.5 6q18 1 30 1q25 0 63 -7q38 -7 84 -38z" />
<glyph unicode="&#116;" horiz-adv-x="299" d="M246 330l-41 -330h-144l41 330h-52l14 116h52l18 144h144l-18 -144h88l-14 -116z" />
<glyph unicode="&#117;" horiz-adv-x="570" d="M567 446l-28 -241q-2 -20 -5.5 -41q-3.5 -21 -10.5 -42q-7 -21 -18.5 -41.5q-11.5 -20.5 -30.5 -38.5q-20 -19 -42.5 -30.5q-22.5 -11.5 -45.5 -17.5q-23 -6 -45.5 -7.5q-22.5 -1.5 -41.5 -1.5q-17 0 -39 1q-22 1 -46 6.5q-24 5.5 -47 15.5q-23 10 -42 28q-23 21 -35.5 53q-12.5 32 -12.5 67q0 14 1.5 33q1.5 19 3.5 30l27 227h144l-26 -222q-2 -21 -3.5 -31q-1.5 -10 -1.5 -18q0 -18 5.5 -30q5.5 -12 13.5 -19q10 -9 26.5 -14q16.5 -5 32.5 -5q17 0 35.5 6q18.5 6 30.5 19q5 5 14.5 22.5q9.5 17.5 14.5 57.5l28 234z" />
<glyph unicode="&#118;" horiz-adv-x="546" d="M204 446l85 -239l147 239h160l-284 -446h-86l-172 446z" />
<glyph unicode="&#119;" horiz-adv-x="852" d="M305 0h-92l-159 446h152l81 -237l141 237h84l93 -237l133 237h162l-269 -446h-90l-91 254z" />
<glyph unicode="&#120;" horiz-adv-x="620" d="M426 241l184 -241h-182l-102 144l-131 -144h-192l234 241l-158 205h182l77 -115l102 115l192 0z" />
<glyph unicode="&#121;" horiz-adv-x="583" d="M224 57l-173 389h164l99 -244l150 244h169l-431 -675l-162 0z" />
<glyph unicode="&#122;" horiz-adv-x="499" d="M271 120h223l-17 -120h-477l282 326h-201l18 120l453 0z" />
<glyph unicode="&#123;" horiz-adv-x="506" d="M284 272q29 -15 38 -36.5q9 -21.5 9 -53.5q0 -10 -0.5 -19q-0.5 -9 -1.5 -17l-19 -160q-1 -5 -1.5 -9q-0.5 -4 -0.5 -8q0 -24 17 -33q17 -9 60 -9h19l-13 -109q-17 -1 -35 -1.5q-18 -0.5 -40 -0.5q-26 0 -52.5 3.5q-26.5 3.5 -49.5 21.5q-21 17 -28 37.5q-7 20.5 -7 39.5q0 12 1 22.5q1 10.5 3 19.5l23 189q1 5 1 8.5q0 3.5 0 8.5q0 19 -10 37.5q-10 18.5 -37 18.5l13 106q33 2 46.5 22.5q13.5 20.5 17.5 50.5l23 184q3 26 11.5 57q8.5 31 38.5 55q14 11 31 17.5q17 6.5 34.5 9.5q17.5 3 34 4q16.5 1 30.5 1q14 0 34 -0.5q20 -0.5 28 -1.5l-13 -109h-39q-35 0 -50.5 -14.5q-15.5 -14.5 -19.5 -44.5l-20 -161q-5 -44 -24 -79t-52 -47z" />
<glyph unicode="&#124;" horiz-adv-x="504" d="M226 750h126v-1000l-126 0z" />
<glyph unicode="&#125;" horiz-adv-x="506" d="M213 147q6 49 23.5 82q17.5 33 51.5 44q-32 14 -39.5 35.5q-7.5 21.5 -7.5 46.5q0 18 3 44l19 160q1 4 1 8.5q0 4.5 0 9.5q0 15 -7.5 23.5q-7.5 8.5 -18.5 12q-11 3.5 -24.5 4.5q-13.5 1 -26.5 1h-19l13 109q9 1 29.5 1.5q20.5 0.5 44.5 0.5q17 0 40.5 -2.5q23.5 -2.5 45 -12.5q21.5 -10 36.5 -30.5q15 -20.5 15 -56.5q0 -21 -3 -42l-22 -183q-1 -5 -1 -9.5q0 -4.5 0 -9.5q0 -23 12.5 -37.5q12.5 -14.5 34.5 -16.5l-13 -106q-20 -2 -32 -10q-12 -8 -19 -18.5q-7 -10.5 -9.5 -22.5q-2.5 -12 -3.5 -22l-24 -190q-4 -30 -11.5 -58.5q-7.5 -28.5 -37.5 -53.5q-27 -22 -58.5 -27q-31.5 -5 -61.5 -5q-20 0 -40.5 0.5q-20.5 0.5 -32.5 1.5l13 109h19q18 0 33.5 1q15.5 1 27.5 6.5q12 5.5 19.5 17.5q7.5 12 10.5 34z" />
<glyph unicode="&#126;" horiz-adv-x="500" d="M250 239q-17 6 -32 11q-15 5 -32 5q-48 0 -77 -61l-71 43l5 11q20 43 33.5 63.5q13.5 20.5 22.5 29.5q36 36 90 36q25 0 42.5 -4.5q17.5 -4.5 37.5 -12.5l45 -17q17 -7 33.5 -11.5q16.5 -4.5 35.5 -4.5q23 0 39.5 12q16.5 12 31.5 40l72 -42l-4 -8q-10 -20 -24 -42q-14 -22 -32 -40q-18 -18 -41 -30q-23 -12 -52 -12q-25 0 -45 6q-20 6 -42 14z" />
<glyph unicode="&#160;" horiz-adv-x="233" />
<glyph unicode="&#161;" horiz-adv-x="298" d="M205 -230h-156l54 444h156zM109 362q0 38 26.5 64.5q26.5 26.5 64.5 26.5q38 0 64.5 -26.5q26.5 -26.5 26.5 -64.5q0 -38 -26.5 -64.5q-26.5 -26.5 -64.5 -26.5q-38 0 -64.5 26.5t-26.5 64.5z" />
<glyph unicode="&#162;" horiz-adv-x="600" d="M516 414q-29 23 -54.5 29.5q-25.5 6.5 -41.5 6.5q-24 0 -46 -7q-22 -7 -41 -26q-16 -16 -25.5 -37.5q-9.5 -21.5 -9.5 -46.5q0 -24 8 -43q8 -19 21 -32q13 -13 34 -21.5q21 -8.5 47 -8.5q26 0 49 9q23 9 41 25l-17 -133q-39 -19 -82 -23l-11 -93h-90l13 100q-46 9 -74 30.5q-28 21.5 -42 38.5q-19 24 -32 58q-13 34 -13 82q0 59 19.5 106q19.5 47 48.5 76q24 24 61.5 43q37.5 19 85.5 23l10 90h90l-11 -94q20 -2 39.5 -8q19.5 -6 38.5 -14z" />
<glyph unicode="&#163;" horiz-adv-x="600" d="M79 248l11 92h75q-9 28 -15 60.5q-6 32.5 -6 60.5q0 44 15 85q15 41 46 72q10 10 25 21q15 11 37 20.5q22 9.5 50.5 16q28.5 6.5 65.5 6.5q61 0 102 -18.5q41 -18.5 66 -44.5q24 -25 40.5 -64.5q16.5 -39.5 16.5 -95.5q0 -7 0 -13.5q0 -6.5 -1 -13.5l-145 0q1 5 1 10q0 5 0 11q0 19 -5 40.5q-5 21.5 -20 37.5q-8 8 -22 15q-14 7 -37 7q-24 0 -38 -8q-14 -8 -20 -13q-17 -15 -24.5 -38.5q-7.5 -23.5 -7.5 -45.5q0 -3 0.5 -9.5q0.5 -6.5 3 -18.5q2.5 -12 6.5 -31.5q4 -19.5 12 -48.5l166 0l-12 -92h-146q1 -5 1 -9q0 -4 0 -9q0 -23 -7 -45q-7 -22 -19 -40q18 -5 30.5 -9q12.5 -4 28.5 -11q15 -6 30 -11.5q15 -5.5 32 -5.5q12 0 21 3q9 3 17 12q13 15 18 33l104 -10q-5 -35 -19 -67q-14 -32 -34 -53q-26 -28 -53.5 -34.5q-27.5 -6.5 -54.5 -6.5q-25 0 -46.5 4q-21.5 4 -56.5 18l-41 16q-5 2 -25.5 8.5q-20.5 6.5 -39.5 6.5q-26 0 -40 -13q-14 -13 -19 -30l-107 9q7 23 18.5 49.5q11.5 26.5 24.5 43.5q22 29 47 41q25 12 45 17q7 11 12 27q5 16 5 38q0 7 0 13.5q0 6.5 -2 14.5z" />
<glyph unicode="&#164;" horiz-adv-x="667" d="M61 135l103 103q-12 15 -28 48.5q-16 33.5 -16 89.5q0 28 8.5 64q8.5 36 36.5 74l-104 104l68 68l104 -103q25 20 58.5 32q33.5 12 81.5 12q26 0 63.5 -7q37.5 -7 75.5 -37l103 103l68 -68l-102 -103q15 -19 24 -38.5q9 -19.5 13.5 -37.5q4.5 -18 6 -34q1.5 -16 1.5 -29q0 -29 -7 -65.5q-7 -36.5 -37 -72.5l103 -103l-68 -68l-103 103q-24 -20 -57 -32.5q-33 -12.5 -81 -12.5q-60 0 -93.5 15q-33.5 15 -50.5 29l-103 -102zM373 237q25 0 50.5 9q25.5 9 46.5 29q22 21 31 46.5q9 25.5 9 54.5q0 38 -12.5 62q-12.5 24 -26.5 38q-17 17 -42 28q-25 11 -56 11q-34 0 -58.5 -11.5q-24.5 -11.5 -39.5 -27.5q-16 -16 -27.5 -40.5q-11.5 -24.5 -11.5 -59.5q0 -35 12 -59.5q12 -24.5 26 -38.5q20 -20 47.5 -30.5t51.5 -10.5z" />
<glyph unicode="&#165;" horiz-adv-x="600" d="M101 347l12 97h82l-107 223h168l91 -212l140 212h182l-165 -223h86l-12 -97h-146l-28 -35l-3 -28h169l-12 -97h-169l-23 -187h-146l23 187h-162l12 97h162l3 28l-17 35z" />
<glyph unicode="&#166;" horiz-adv-x="504" d="M226 750h126v-385h-126zM226 136h126v-386l-126 0z" />
<glyph unicode="&#167;" horiz-adv-x="574" d="M210 9q0 -17 5.5 -35q5.5 -18 16.5 -29q8 -8 20 -13.5q12 -5.5 32 -5.5q23 0 36 6.5q13 6.5 18 11.5q5 5 12 16q7 11 7 31q0 26 -19 44q-13 12 -30 20.5q-17 8.5 -40 19.5l-43 21q-19 9 -39 21q-20 12 -37 29q-28 28 -36 58q-8 30 -8 59q0 28 6.5 54.5q6.5 26.5 27.5 53.5q17 21 38.5 37q21.5 16 44.5 26q-21 13 -33 28.5q-12 15.5 -18 31q-6 15.5 -8 29.5q-2 14 -2 25q0 41 13 74q13 33 36 56q17 16 36.5 26.5q19.5 10.5 39 15.5q19.5 5 38 7q18.5 2 33.5 2q33 0 58 -5q25 -5 43.5 -13q18.5 -8 31.5 -17q13 -9 21 -18q25 -26 37.5 -61.5q12.5 -35.5 13.5 -69.5l-130 0q0 14 -4 30.5q-4 16.5 -15 27.5q-8 8 -20.5 13.5q-12.5 5.5 -31.5 5.5q-20 0 -32.5 -5.5q-12.5 -5.5 -19.5 -12.5q-4 -4 -11 -15q-7 -11 -7 -31q0 -17 8 -28.5q8 -11.5 22 -22.5q11 -8 25.5 -16q14.5 -8 37.5 -19l38 -18q35 -17 54.5 -32.5q19.5 -15.5 29.5 -28.5q11 -13 23 -40q12 -27 12 -72q0 -29 -8 -58q-8 -29 -26 -52q-12 -16 -31 -29.5q-19 -13.5 -43 -21.5q33 -29 42.5 -61q9.5 -32 9.5 -56q0 -46 -15.5 -79.5q-15.5 -33.5 -36.5 -54.5q-21 -21 -56.5 -37q-35.5 -16 -91.5 -16q-61 0 -97 18q-36 18 -53 36q-26 27 -39.5 66q-13.5 39 -15.5 73zM321 197q22 0 37 7q15 7 23 16q14 14 18 30q4 16 4 28q0 26 -7.5 40q-7.5 14 -15.5 21q-11 9 -27 13q-16 4 -30 4q-17 0 -32 -4.5q-15 -4.5 -27 -17.5q-8 -8 -15.5 -23.5q-7.5 -15.5 -7.5 -41.5q0 -20 6.5 -32q6.5 -12 14.5 -20q22 -20 59 -20z" />
<glyph unicode="&#168;" horiz-adv-x="500" d="M136 599q0 32 23.5 55.5q23.5 23.5 55.5 23.5q32 0 55.5 -23.5q23.5 -23.5 23.5 -55.5q0 -32 -23.5 -55.5q-23.5 -23.5 -55.5 -23.5q-32 0 -55.5 23.5q-23.5 23.5 -23.5 55.5zt0 0zM354 599q0 32 23.5 55.5q23.5 23.5 55.5 23.5q32 0 55.5 -23.5q23.5 -23.5 23.5 -55.5q0 -32 -23.5 -55.5q-23.5 -23.5 -55.5 -23.5q-32 0 -55.5 23.5t-23.5 55.5z" />
<glyph unicode="&#169;" horiz-adv-x="762" d="M547 396q-17 20 -43.5 35q-26.5 15 -58.5 15q-20 0 -42 -7.5q-22 -7.5 -38 -22.5q-17 -16 -24.5 -39q-7.5 -23 -7.5 -45q0 -24 7.5 -44q7.5 -20 20.5 -34q15 -16 37 -25q22 -9 48 -9q19 0 34.5 5q15.5 5 28.5 12.5q13 7.5 22.5 16q9.5 8.5 15.5 15.5l0 -120q-31 -14 -58 -19.5q-27 -5.5 -53 -5.5q-58 0 -96 18q-38 18 -61 41q-25 26 -41.5 64q-16.5 38 -16.5 84q0 47 16.5 85q16.5 38 42.5 64q25 26 65 44q40 18 95 18q24 0 52 -5.5q28 -5.5 55 -18.5zM421 620q-24 0 -50 -5.5q-26 -5.5 -51 -15.5q-25 -10 -48 -24.5q-23 -14.5 -42 -32.5q-37 -36 -61.5 -91.5q-24.5 -55.5 -24.5 -116.5q0 -62 24.5 -118q24.5 -56 61.5 -91q19 -18 42 -32.5q23 -14.5 48 -24.5q25 -10 51 -15.5q26 -5.5 50 -5.5q24 0 50 5.5q26 5.5 51 15.5q25 10 48 24.5q23 14.5 42 32.5q37 35 61.5 91q24.5 56 24.5 118q0 61 -24.5 116.5q-24.5 55.5 -61.5 91.5q-19 18 -42 32.5q-23 14.5 -48 24.5q-25 10 -51 15.5q-26 5.5 -50 5.5zt0 0zM768 333q0 -72 -27 -136q-27 -64 -76 -113q-45 -44 -106.5 -71.5q-61.5 -27.5 -137.5 -27.5q-76 0 -137.5 27.5q-61.5 27.5 -106.5 71.5q-49 49 -76 113q-27 64 -27 136q0 73 27 137q27 64 76 113q45 44 106.5 71.5q61.5 27.5 137.5 27.5q76 0 137.5 -27.5q61.5 -27.5 106.5 -71.5q49 -49 76 -113t27 -137z" />
<glyph unicode="&#170;" horiz-adv-x="349" d="M391 659l-32 -264h-84l5 32q-23 -27 -47 -34q-24 -7 -40 -7q-20 0 -41.5 6q-21.5 6 -40.5 24q-23 22 -29.5 48.5q-6.5 26.5 -6.5 48.5q0 25 7.5 56q7.5 31 34.5 59q22 22 47 30.5q25 8.5 54 8.5q17 0 41.5 -6.5q24.5 -6.5 44.5 -32.5l3 31zM233 593q-20 0 -32 -6q-12 -6 -20 -14q-19 -21 -19 -51q0 -15 4.5 -26q4.5 -11 11.5 -18q16 -18 48 -18q18 0 30.5 5.5q12.5 5.5 20.5 13.5q8 8 14 20.5q6 12.5 6 32.5q0 17 -5.5 28q-5.5 11 -12.5 17q-9 8 -21.5 12q-12.5 4 -24.5 4zt0 0zM354 357l-9 -66h-286l8 66z" />
<glyph unicode="&#171;" horiz-adv-x="534" d="M284 55l-88 -47l-128 216l181 215l72 -65l-135 -160zM492 55l-88 -47l-128 216l181 215l72 -65l-135 -160z" />
<glyph unicode="&#172;" horiz-adv-x="500" d="M362 0v149h-310v118h436l0 -267z" />
<glyph unicode="&#173;" horiz-adv-x="356" d="M89 316h256l-16 -126l-256 0z" />
<glyph unicode="&#174;" horiz-adv-x="762" d="M410 529q13 0 28.5 -1q15.5 -1 31.5 -5q16 -4 31.5 -12q15.5 -8 28.5 -21q31 -31 31 -82q0 -24 -8 -43q-8 -19 -21 -33q-5 -5 -18 -15q-13 -10 -36 -15l107 -152h-133l-76 128v-128h-108v379zM376 361h15q12 0 23 1q11 1 22 8q19 12 19 37q0 7 -2.5 16q-2.5 9 -11.5 16q-11 8 -26 9q-15 1 -25 1h-14zM421 620q-24 0 -50 -5.5q-26 -5.5 -51 -15.5q-25 -10 -48 -24.5q-23 -14.5 -42 -32.5q-37 -36 -61.5 -91.5q-24.5 -55.5 -24.5 -116.5q0 -62 24.5 -118q24.5 -56 61.5 -91q19 -18 42 -32.5q23 -14.5 48 -24.5q25 -10 51 -15.5q26 -5.5 50 -5.5q24 0 50 5.5q26 5.5 51 15.5q25 10 48 24.5q23 14.5 42 32.5q37 35 61.5 91q24.5 56 24.5 118q0 61 -24.5 116.5q-24.5 55.5 -61.5 91.5q-19 18 -42 32.5q-23 14.5 -48 24.5q-25 10 -51 15.5q-26 5.5 -50 5.5zt0 0zM768 333q0 -72 -27 -136q-27 -64 -76 -113q-45 -44 -106.5 -71.5q-61.5 -27.5 -137.5 -27.5q-76 0 -137.5 27.5q-61.5 27.5 -106.5 71.5q-49 49 -76 113q-27 64 -27 136q0 73 27 137q27 64 76 113q45 44 106.5 71.5q61.5 27.5 137.5 27.5q76 0 137.5 -27.5q61.5 -27.5 106.5 -71.5q49 -49 76 -113t27 -137z" />
<glyph unicode="&#175;" horiz-adv-x="500" d="M138 633h380l-11 -90l-380 0z" />
<glyph unicode="&#176;" horiz-adv-x="502" d="M235 515q0 -30 22 -52q22 -22 54 -22q32 0 54 22q22 22 22 52q0 30 -22 52q-22 22 -54 22q-32 0 -54 -22q-22 -22 -22 -52zt0 0zM157 515q0 32 12 59.5q12 27.5 32.5 48q20.5 20.5 48.5 32.5q28 12 61 12q33 0 61 -12q28 -12 48.5 -32.5q20.5 -20.5 32.5 -48q12 -27.5 12 -59.5q0 -32 -12 -59.5q-12 -27.5 -32.5 -48q-20.5 -20.5 -48.5 -32.5q-28 -12 -61 -12q-33 0 -61 12q-28 12 -48.5 32.5q-20.5 20.5 -32.5 48t-12 59.5z" />
<glyph unicode="&#177;" horiz-adv-x="500" d="M63 472h154v155h126v-155h154v-116h-154v-155h-126v155h-154zM63 167h434v-116l-434 0z" />
<glyph unicode="&#178;" horiz-adv-x="395" d="M181 394q37 37 60 59.5q23 22.5 37 45.5q8 13 13 25.5q5 12.5 5 29.5q0 8 -2.5 17.5q-2.5 9.5 -12.5 17.5q-13 10 -33 10q-19 0 -32 -13q-8 -8 -13.5 -21.5q-5.5 -13.5 -7.5 -25.5l-94 0q5 27 17 55q12 28 32 47q22 22 47 30q25 8 54 8q19 0 48.5 -4.5q29.5 -4.5 55.5 -26.5q20 -17 31 -40.5q11 -23.5 11 -49.5q0 -16 -5 -36.5q-5 -20.5 -20 -44.5q-16 -26 -35 -43.5q-19 -17.5 -39 -34.5l-53 -46h131l-10 -78l-304 0z" />
<glyph unicode="&#179;" horiz-adv-x="395" d="M171 396q3 -24 17 -38q9 -9 20 -12.5q11 -3.5 22 -3.5q27 0 43 14q8 7 12 18q4 11 4 22q0 14 -5.5 22.5q-5.5 8.5 -12.5 13.5q-11 8 -24 9.5q-13 1.5 -27 1.5h-6l8 70h10q9 0 23 1.5q14 1.5 25 10.5q16 13 16 36q0 9 -3.5 18q-3.5 9 -10.5 14q-5 4 -14 7q-9 3 -17 3q-8 0 -18 -3.5q-10 -3.5 -17 -10.5q-6 -6 -9.5 -16q-3.5 -10 -5.5 -18l-90 0q4 22 14.5 45.5q10.5 23.5 27.5 40.5q25 25 53 31.5q28 6.5 51 6.5q22 0 51 -6q29 -6 53 -30q18 -18 24 -38.5q6 -20.5 6 -41.5q0 -15 -3 -27q-3 -12 -12 -25q-9 -14 -19.5 -20.5q-10.5 -6.5 -21.5 -10.5q20 -9 33 -23q12 -14 16 -28.5q4 -14.5 4 -28.5q0 -28 -10 -54q-10 -26 -30 -45q-28 -27 -60 -33q-32 -6 -56 -6q-12 0 -26.5 1.5q-14.5 1.5 -29.5 5.5q-15 4 -29.5 11.5q-14.5 7.5 -27.5 20.5q-17 17 -28.5 41.5q-11.5 24.5 -13.5 53.5z" />
<glyph unicode="&#180;" horiz-adv-x="500" d="M491 650l-169 -135l-59 48l142 152z" />
<glyph unicode="&#181;" horiz-adv-x="570" d="M30 -230l83 676h144l-24 -195q-3 -27 -4.5 -43q-1.5 -16 -1.5 -27q0 -16 3 -34q3 -18 17 -32q20 -21 53 -21q19 0 33.5 6q14.5 6 23.5 14q20 19 27 50q7 31 12 67l27 215h144l-55 -446h-141l7 53q-8 -20 -19 -31q-11 -11 -13 -13q-10 -8 -24 -13.5q-14 -5.5 -34 -5.5q-15 0 -29 4q-14 4 -26 17q-9 9 -16 23q-7 14 -11 28l-35 -292z" />
<glyph unicode="&#182;" horiz-adv-x="659" d="M205 -94l50 415h-7q-42 0 -75 13.5q-33 13.5 -53 33.5q-23 24 -30 52q-7 28 -7 49q0 43 13.5 79.5q13.5 36.5 36.5 59.5q19 20 43 31.5q24 11.5 50 17.5q26 6 53.5 8q27.5 2 54.5 2h335l-12 -97h-72l-81 -664h-108l81 664h-83l-81 -664z" />
<glyph unicode="&#183;" horiz-adv-x="256" d="M53 334q0 46 31 77q31 31 77 31q46 0 77 -31q31 -31 31 -77q0 -46 -31 -77q-31 -31 -77 -31q-46 0 -77 31t-31 77z" />
<glyph unicode="&#184;" horiz-adv-x="500" d="M345 -97l-126 -139l-74 40l106 150z" />
<glyph unicode="&#185;" horiz-adv-x="395" d="M233 589h-66l10 78h158l-48 -392l-92 0z" />
<glyph unicode="&#186;" horiz-adv-x="352" d="M240 667q11 0 26 -1.5q15 -1.5 31.5 -6q16.5 -4.5 33 -13.5q16.5 -9 30.5 -24q13 -14 24 -36q11 -22 11 -57q0 -37 -13 -61.5q-13 -24.5 -27 -38.5q-29 -29 -63.5 -36q-34.5 -7 -63.5 -7q-25 0 -56.5 6q-31.5 6 -57.5 27q-13 11 -28.5 35q-15.5 24 -15.5 66q0 38 14 64q14 26 31 41q16 14 45.5 28q29.5 14 78.5 14zt0 0zM236 593q-20 0 -32.5 -6.5q-12.5 -6.5 -18.5 -13.5q-10 -11 -15 -25q-5 -14 -5 -28q0 -28 18 -44q10 -10 21.5 -13q11.5 -3 22.5 -3q22 0 34.5 6q12.5 6 20.5 13q8 8 14 20.5q6 12.5 6 29.5q0 31 -19 48q-8 7 -19.5 11.5q-11.5 4.5 -27.5 4.5zt0 0zM360 357l-8 -66h-300l8 66z" />
<glyph unicode="&#187;" horiz-adv-x="534" d="M99 394l86 45l129 -215l-182 -216l-74 67l138 159zM307 394l86 45l129 -215l-182 -216l-74 67l138 159z" />
<glyph unicode="&#188;" horiz-adv-x="860" d="M225 589h-67l10 78h159l-49 -400h-92zM646 678l65 -23l-472 -669l-65 24zM752 150h46l-9 -74h-46l-9 -76h-88l9 76h-192l6 50l208 274h106zM664 150l19 148l-113 -148z" />
<glyph unicode="&#189;" horiz-adv-x="860" d="M201 589h-66l10 78h158l-48 -392h-92zM622 678l65 -23l-472 -669l-65 24zM596 119q37 37 60 60q23 23 37 45q8 12 13 25.5q5 13.5 5 30.5q0 8 -2.5 17q-2.5 9 -12.5 17q-7 5 -16 7.5q-9 2.5 -17 2.5q-23 0 -36 -18q-6 -8 -10.5 -19.5q-4.5 -11.5 -6.5 -22.5l-94 0q5 27 17 55q12 28 32 47q18 18 43 28q25 10 58 10q29 0 59 -9q30 -9 52 -29q13 -11 24 -31q11 -20 11 -52q0 -40 -25 -81q-16 -26 -35 -43.5q-19 -17.5 -39 -34.5l-53 -46h131l-10 -78l-304 0z" />
<glyph unicode="&#190;" horiz-adv-x="860" d="M172 399q0 -25 15 -40q5 -5 14 -9.5q9 -4.5 26 -4.5q8 0 21.5 2.5q13.5 2.5 24.5 13.5q9 8 13 18.5q4 10.5 4 21.5q0 22 -18 35q-3 2 -13.5 6q-10.5 4 -32.5 4h-11l8 70h10q10 0 23.5 1.5q13.5 1.5 24.5 11.5q16 14 16 36q0 11 -4.5 18q-4.5 7 -9.5 12q-13 11 -33 11q-13 0 -21 -4.5q-8 -4.5 -13 -9.5q-5 -6 -8.5 -16q-3.5 -10 -5.5 -18l-90 0q4 22 14.5 45.5q10.5 23.5 27.5 40.5q23 23 49.5 30.5q26.5 7.5 50.5 7.5q4 0 15 -0.5q11 -0.5 25 -3q14 -2.5 30 -8.5q16 -6 30 -16q13 -10 25.5 -28.5q12.5 -18.5 12.5 -48.5q0 -30 -15 -54q-9 -14 -19 -21.5q-10 -7.5 -22 -12.5q20 -9 33 -23q12 -14 16 -28.5q4 -14.5 4 -28.5q0 -25 -9.5 -51.5q-9.5 -26.5 -32.5 -49.5q-27 -26 -56.5 -34.5q-29.5 -8.5 -58.5 -8.5q-42 0 -72.5 12q-30.5 12 -47.5 30q-16 17 -25 41q-9 24 -9 51zM696 678l65 -23l-472 -669l-65 24zM714 150l19 148l-113 -148zM802 150h46l-9 -74h-46l-9 -76h-88l9 76h-192l6 50l208 274l106 0z" />
<glyph unicode="&#191;" horiz-adv-x="525" d="M385 224l-22 -183q-13 2 -26.5 2.5q-13.5 0.5 -24.5 0.5q-65 0 -97 -30q-17 -15 -21.5 -32.5q-4.5 -17.5 -4.5 -31.5q0 -12 3.5 -24.5q3.5 -12.5 14.5 -24.5q11 -11 24 -15q13 -4 28 -4q11 0 24.5 3.5q13.5 3.5 24.5 14.5q11 11 16.5 26.5q5.5 15.5 6.5 30.5l150 0q-2 -18 -6.5 -38q-4.5 -20 -12.5 -39.5q-8 -19.5 -19 -37q-11 -17.5 -24 -30.5q-23 -23 -61 -38.5q-38 -15.5 -98 -15.5q-41 0 -85 11q-44 11 -80 46q-53 51 -53 134q0 28 5.5 50.5q5.5 22.5 13.5 40q8 17.5 18 30.5q10 13 18 21q23 23 56.5 39q33.5 16 75.5 19l10 75zM238 362q0 38 26.5 64.5q26.5 26.5 64.5 26.5q38 0 64.5 -26.5q26.5 -26.5 26.5 -64.5q0 -38 -26.5 -64.5q-26.5 -26.5 -64.5 -26.5q-38 0 -64.5 26.5t-26.5 64.5z" />
<glyph unicode="&#192;" horiz-adv-x="677" d="M483 126h-252l-63 -126h-166l352 667h142l179 -667h-158zM455 244l-54 235l-112 -235zM295 853l105 72l114 -148l-71 -53z" />
<glyph unicode="&#193;" horiz-adv-x="677" d="M483 126h-252l-63 -126h-166l352 667h142l179 -667h-158zM455 244l-54 235l-112 -235zM594 853l-180 -129l-59 53l153 148z" />
<glyph unicode="&#194;" horiz-adv-x="677" d="M483 126h-252l-63 -126h-166l352 667h142l179 -667h-158zM455 244l-54 235l-112 -235zM254 797l205 140l172 -140l-66 -71l-114 93l-133 -93z" />
<glyph unicode="&#195;" horiz-adv-x="677" d="M483 126h-252l-63 -126h-166l352 667h142l179 -667h-158zM455 244l-54 235l-112 -235zM622 817q-9 -15 -22 -31q-13 -16 -25 -27q-17 -15 -35.5 -23q-18.5 -8 -41.5 -8q-18 0 -32.5 4.5q-14.5 4.5 -29.5 10.5l-33 13q-20 8 -31.5 11.5q-11.5 3.5 -20.5 3.5q-14 0 -27 -8.5q-13 -8.5 -24 -30.5l-65 50q7 12 18 28q11 16 22 27q16 16 36 25q20 9 46 9q16 0 32 -4q16 -4 31 -10l34 -14q32 -14 51 -14q18 0 29.5 10q11.5 10 22.5 28z" />
<glyph unicode="&#196;" horiz-adv-x="677" d="M483 126h-252l-63 -126h-166l352 667h142l179 -667h-158zM455 244l-54 235l-112 -235zM252 811q0 32 23.5 55.5q23.5 23.5 55.5 23.5q32 0 55.5 -23.5q23.5 -23.5 23.5 -55.5q0 -32 -23.5 -55.5q-23.5 -23.5 -55.5 -23.5q-32 0 -55.5 23.5q-23.5 23.5 -23.5 55.5zt0 0zM470 811q0 32 23.5 55.5q23.5 23.5 55.5 23.5q32 0 55.5 -23.5q23.5 -23.5 23.5 -55.5q0 -32 -23.5 -55.5q-23.5 -23.5 -55.5 -23.5q-32 0 -55.5 23.5t-23.5 55.5z" />
<glyph unicode="&#197;" horiz-adv-x="677" d="M483 126h-252l-63 -126h-166l352 667h142l179 -667h-158zM455 244l-54 235l-112 -235zM553 827q0 -39 -27 -66q-17 -16 -40 -24q-23 -8 -49 -8q-26 0 -49 8q-23 8 -40 24q-27 27 -27 66q0 39 27 66q17 16 40 24q23 8 49 8q26 0 49 -8q23 -8 40 -24q27 -27 27 -66zt0 0zM437 866q-22 0 -34 -12q-12 -12 -12 -27q0 -15 12 -27q12 -12 34 -12q22 0 34 12q12 12 12 27q0 15 -12 27q-12 12 -34 12z" />
<glyph unicode="&#198;" horiz-adv-x="920" d="M491 129h-255l-66 -129h-164l355 667h145h234l32 -130h-232l35 -129h230l34 -130h-231l41 -148h232l33 -130h-230h-158zM463 247l-55 219l-113 -219z" />
<glyph unicode="&#199;" horiz-adv-x="605" d="M567 21q-8 -4 -22.5 -10q-14.5 -6 -34.5 -12q-20 -6 -46.5 -10q-26.5 -4 -58.5 -4q-47 0 -84.5 9q-37.5 9 -66.5 22.5q-29 13.5 -50 29q-21 15.5 -34 28.5q-16 16 -32 38q-16 22 -29 50.5q-13 28.5 -21 63.5q-8 35 -8 79q0 88 29.5 157q29.5 69 76.5 116q42 42 108.5 73q66.5 31 158.5 31q39 0 70 -5.5q31 -5.5 54.5 -13q23.5 -7.5 39.5 -16q16 -8.5 25 -13.5l-19 -163q-10 10 -25 22q-15 12 -35.5 22q-20.5 10 -47 16.5q-26.5 6.5 -59.5 6.5q-48 0 -87 -14q-39 -14 -71 -49q-31 -33 -45.5 -75q-14.5 -42 -14.5 -82q0 -42 14.5 -78q14.5 -36 37.5 -59q23 -23 59 -37.5q36 -14.5 82 -14.5q50 0 89 17.5q39 17.5 67 40.5zM476 -96l-120 -140l-80 40l100 150z" />
<glyph unicode="&#200;" horiz-adv-x="502" d="M504 537h-218l-16 -129h210l-16 -130h-210l-18 -148h222l-16 -130h-226h-146l82 667h368zM207 853l105 72l114 -148l-71 -53z" />
<glyph unicode="&#201;" horiz-adv-x="502" d="M504 537h-218l-16 -129h210l-16 -130h-210l-18 -148h222l-16 -130h-226h-146l82 667h368zM506 853l-180 -129l-59 53l153 148z" />
<glyph unicode="&#202;" horiz-adv-x="502" d="M504 537h-218l-16 -129h210l-16 -130h-210l-18 -148h222l-16 -130h-226h-146l82 667h368zM152 797l205 140l172 -140l-66 -71l-114 93l-133 -93z" />
<glyph unicode="&#203;" horiz-adv-x="502" d="M504 537h-218l-16 -129h210l-16 -130h-210l-18 -148h222l-16 -130h-226h-146l82 667h368zM159 811q0 32 23.5 55.5q23.5 23.5 55.5 23.5q32 0 55.5 -23.5q23.5 -23.5 23.5 -55.5q0 -32 -23.5 -55.5q-23.5 -23.5 -55.5 -23.5q-32 0 -55.5 23.5q-23.5 23.5 -23.5 55.5zt0 0zM377 811q0 32 23.5 55.5q23.5 23.5 55.5 23.5q32 0 55.5 -23.5q23.5 -23.5 23.5 -55.5q0 -32 -23.5 -55.5q-23.5 -23.5 -55.5 -23.5q-32 0 -55.5 23.5t-23.5 55.5z" />
<glyph unicode="&#204;" horiz-adv-x="306" d="M309 667l-82 -667h-154l82 667zM110 853l105 72l114 -148l-71 -53z" />
<glyph unicode="&#205;" horiz-adv-x="306" d="M309 667l-82 -667h-154l82 667zM409 853l-180 -129l-59 53l153 148z" />
<glyph unicode="&#206;" horiz-adv-x="306" d="M309 667l-82 -667h-154l82 667zM58 797l205 140l172 -140l-66 -71l-114 93l-133 -93z" />
<glyph unicode="&#207;" horiz-adv-x="306" d="M309 667l-82 -667h-154l82 667zM60 811q0 32 23.5 55.5q23.5 23.5 55.5 23.5q32 0 55.5 -23.5q23.5 -23.5 23.5 -55.5q0 -32 -23.5 -55.5q-23.5 -23.5 -55.5 -23.5q-32 0 -55.5 23.5q-23.5 23.5 -23.5 55.5zt0 0zM278 811q0 32 23.5 55.5q23.5 23.5 55.5 23.5q32 0 55.5 -23.5q23.5 -23.5 23.5 -55.5q0 -32 -23.5 -55.5q-23.5 -23.5 -55.5 -23.5q-32 0 -55.5 23.5t-23.5 55.5z" />
<glyph unicode="&#208;" horiz-adv-x="712" d="M179 667h195q26 0 58.5 -2.5q32.5 -2.5 67 -11.5q34.5 -9 68 -26q33.5 -17 61.5 -45q33 -33 56.5 -88q23.5 -55 23.5 -134q0 -57 -11.5 -101.5q-11.5 -44.5 -28 -77.5q-16.5 -33 -34 -55q-17.5 -22 -30.5 -34q-58 -55 -135 -73.5q-77 -18.5 -168 -18.5h-52h-153l37 303h-90l14 110h90zM302 413h120l-14 -110h-120l-21 -173h47q17 0 38 1q21 1 43.5 6.5q22.5 5.5 45.5 15.5q23 10 43 28q29 26 48 70.5q19 44.5 19 104.5q0 45 -13 79q-13 34 -35 55q-24 23 -62 35q-38 12 -77 12l-47 0z" />
<glyph unicode="&#209;" horiz-adv-x="796" d="M70 0l83 667h134l307 -434l54 434h154l-82 -667h-134l-309 436l-53 -436zM707 817q-9 -15 -22 -31q-13 -16 -25 -27q-17 -15 -35.5 -23q-18.5 -8 -41.5 -8q-18 0 -32.5 4.5q-14.5 4.5 -29.5 10.5l-33 13q-20 8 -31.5 11.5q-11.5 3.5 -20.5 3.5q-14 0 -27 -8.5q-13 -8.5 -24 -30.5l-65 50q7 12 18 28q11 16 22 27q16 16 36 25q20 9 46 9q16 0 32 -4q16 -4 31 -10l34 -14q32 -14 51 -14q18 0 29.5 10q11.5 10 22.5 28z" />
<glyph unicode="&#210;" horiz-adv-x="810" d="M464 682q48 0 86.5 -7.5q38.5 -7.5 69.5 -20q31 -12.5 53.5 -28q22.5 -15.5 39.5 -31.5q43 -42 68.5 -102.5q25.5 -60.5 25.5 -134.5q0 -36 -6.5 -72.5q-6.5 -36.5 -19 -71.5q-12.5 -35 -32 -67q-19.5 -32 -45.5 -59q-32 -32 -66.5 -52.5q-34.5 -20.5 -70.5 -31.5q-36 -11 -71 -15q-35 -4 -68 -4q-31 0 -63.5 3.5q-32.5 3.5 -65 14q-32.5 10.5 -64 29q-31.5 18.5 -61.5 48.5q-17 18 -34 41q-17 23 -30.5 52q-13.5 29 -21.5 64q-8 35 -8 76q0 88 31 155.5q31 67.5 79 112.5q32 30 66.5 50q34.5 20 70 31q35.5 11 70.5 15.5q35 4.5 67 4.5zt0 0zM458 540q-98 0 -159 -64q-29 -31 -45 -71q-16 -40 -16 -82q0 -46 15.5 -81.5q15.5 -35.5 38.5 -58.5q34 -35 72.5 -45.5q38.5 -10.5 73.5 -10.5q17 0 35.5 2q18.5 2 37.5 8q19 6 38.5 17q19.5 11 37.5 30q27 28 44.5 70q17.5 42 17.5 94q0 32 -10 70q-10 38 -43 70q-33 32 -70 42q-37 10 -68 10zt0 0zM331 853l105 72l114 -148l-71 -53z" />
<glyph unicode="&#211;" horiz-adv-x="810" d="M464 682q48 0 86.5 -7.5q38.5 -7.5 69.5 -20q31 -12.5 53.5 -28q22.5 -15.5 39.5 -31.5q43 -42 68.5 -102.5q25.5 -60.5 25.5 -134.5q0 -36 -6.5 -72.5q-6.5 -36.5 -19 -71.5q-12.5 -35 -32 -67q-19.5 -32 -45.5 -59q-32 -32 -66.5 -52.5q-34.5 -20.5 -70.5 -31.5q-36 -11 -71 -15q-35 -4 -68 -4q-31 0 -63.5 3.5q-32.5 3.5 -65 14q-32.5 10.5 -64 29q-31.5 18.5 -61.5 48.5q-17 18 -34 41q-17 23 -30.5 52q-13.5 29 -21.5 64q-8 35 -8 76q0 88 31 155.5q31 67.5 79 112.5q32 30 66.5 50q34.5 20 70 31q35.5 11 70.5 15.5q35 4.5 67 4.5zt0 0zM458 540q-98 0 -159 -64q-29 -31 -45 -71q-16 -40 -16 -82q0 -46 15.5 -81.5q15.5 -35.5 38.5 -58.5q34 -35 72.5 -45.5q38.5 -10.5 73.5 -10.5q17 0 35.5 2q18.5 2 37.5 8q19 6 38.5 17q19.5 11 37.5 30q27 28 44.5 70q17.5 42 17.5 94q0 32 -10 70q-10 38 -43 70q-33 32 -70 42q-37 10 -68 10zt0 0zM660 853l-180 -129l-59 53l153 148z" />
<glyph unicode="&#212;" horiz-adv-x="810" d="M464 682q48 0 86.5 -7.5q38.5 -7.5 69.5 -20q31 -12.5 53.5 -28q22.5 -15.5 39.5 -31.5q43 -42 68.5 -102.5q25.5 -60.5 25.5 -134.5q0 -36 -6.5 -72.5q-6.5 -36.5 -19 -71.5q-12.5 -35 -32 -67q-19.5 -32 -45.5 -59q-32 -32 -66.5 -52.5q-34.5 -20.5 -70.5 -31.5q-36 -11 -71 -15q-35 -4 -68 -4q-31 0 -63.5 3.5q-32.5 3.5 -65 14q-32.5 10.5 -64 29q-31.5 18.5 -61.5 48.5q-17 18 -34 41q-17 23 -30.5 52q-13.5 29 -21.5 64q-8 35 -8 76q0 88 31 155.5q31 67.5 79 112.5q32 30 66.5 50q34.5 20 70 31q35.5 11 70.5 15.5q35 4.5 67 4.5zt0 0zM458 540q-98 0 -159 -64q-29 -31 -45 -71q-16 -40 -16 -82q0 -46 15.5 -81.5q15.5 -35.5 38.5 -58.5q34 -35 72.5 -45.5q38.5 -10.5 73.5 -10.5q17 0 35.5 2q18.5 2 37.5 8q19 6 38.5 17q19.5 11 37.5 30q27 28 44.5 70q17.5 42 17.5 94q0 32 -10 70q-10 38 -43 70q-33 32 -70 42q-37 10 -68 10zt0 0zM289 797l205 140l172 -140l-66 -71l-114 93l-133 -93z" />
<glyph unicode="&#213;" horiz-adv-x="810" d="M464 682q48 0 86.5 -7.5q38.5 -7.5 69.5 -20q31 -12.5 53.5 -28q22.5 -15.5 39.5 -31.5q43 -42 68.5 -102.5q25.5 -60.5 25.5 -134.5q0 -36 -6.5 -72.5q-6.5 -36.5 -19 -71.5q-12.5 -35 -32 -67q-19.5 -32 -45.5 -59q-32 -32 -66.5 -52.5q-34.5 -20.5 -70.5 -31.5q-36 -11 -71 -15q-35 -4 -68 -4q-31 0 -63.5 3.5q-32.5 3.5 -65 14q-32.5 10.5 -64 29q-31.5 18.5 -61.5 48.5q-17 18 -34 41q-17 23 -30.5 52q-13.5 29 -21.5 64q-8 35 -8 76q0 88 31 155.5q31 67.5 79 112.5q32 30 66.5 50q34.5 20 70 31q35.5 11 70.5 15.5q35 4.5 67 4.5zt0 0zM458 540q-98 0 -159 -64q-29 -31 -45 -71q-16 -40 -16 -82q0 -46 15.5 -81.5q15.5 -35.5 38.5 -58.5q34 -35 72.5 -45.5q38.5 -10.5 73.5 -10.5q17 0 35.5 2q18.5 2 37.5 8q19 6 38.5 17q19.5 11 37.5 30q27 28 44.5 70q17.5 42 17.5 94q0 32 -10 70q-10 38 -43 70q-33 32 -70 42q-37 10 -68 10zt0 0zM672 817q-9 -15 -22 -31q-13 -16 -25 -27q-17 -15 -35.5 -23q-18.5 -8 -41.5 -8q-18 0 -32.5 4.5q-14.5 4.5 -29.5 10.5l-33 13q-20 8 -31.5 11.5q-11.5 3.5 -20.5 3.5q-14 0 -27 -8.5q-13 -8.5 -24 -30.5l-65 50q7 12 18 28q11 16 22 27q16 16 36 25q20 9 46 9q16 0 32 -4q16 -4 31 -10l34 -14q32 -14 51 -14q18 0 29.5 10q11.5 10 22.5 28z" />
<glyph unicode="&#214;" horiz-adv-x="810" d="M464 682q48 0 86.5 -7.5q38.5 -7.5 69.5 -20q31 -12.5 53.5 -28q22.5 -15.5 39.5 -31.5q43 -42 68.5 -102.5q25.5 -60.5 25.5 -134.5q0 -36 -6.5 -72.5q-6.5 -36.5 -19 -71.5q-12.5 -35 -32 -67q-19.5 -32 -45.5 -59q-32 -32 -66.5 -52.5q-34.5 -20.5 -70.5 -31.5q-36 -11 -71 -15q-35 -4 -68 -4q-31 0 -63.5 3.5q-32.5 3.5 -65 14q-32.5 10.5 -64 29q-31.5 18.5 -61.5 48.5q-17 18 -34 41q-17 23 -30.5 52q-13.5 29 -21.5 64q-8 35 -8 76q0 88 31 155.5q31 67.5 79 112.5q32 30 66.5 50q34.5 20 70 31q35.5 11 70.5 15.5q35 4.5 67 4.5zt0 0zM458 540q-98 0 -159 -64q-29 -31 -45 -71q-16 -40 -16 -82q0 -46 15.5 -81.5q15.5 -35.5 38.5 -58.5q34 -35 72.5 -45.5q38.5 -10.5 73.5 -10.5q17 0 35.5 2q18.5 2 37.5 8q19 6 38.5 17q19.5 11 37.5 30q27 28 44.5 70q17.5 42 17.5 94q0 32 -10 70q-10 38 -43 70q-33 32 -70 42q-37 10 -68 10zt0 0zM297 811q0 32 23.5 55.5q23.5 23.5 55.5 23.5q32 0 55.5 -23.5q23.5 -23.5 23.5 -55.5q0 -32 -23.5 -55.5q-23.5 -23.5 -55.5 -23.5q-32 0 -55.5 23.5q-23.5 23.5 -23.5 55.5zt0 0zM515 811q0 32 23.5 55.5q23.5 23.5 55.5 23.5q32 0 55.5 -23.5q23.5 -23.5 23.5 -55.5q0 -32 -23.5 -55.5q-23.5 -23.5 -55.5 -23.5q-32 0 -55.5 23.5t-23.5 55.5z" />
<glyph unicode="&#215;" horiz-adv-x="500" d="M205 336l-118 119l87 87l118 -119l118 119l84 -84l-118 -118l118 -119l-87 -87l-118 119l-119 -118l-83 83z" />
<glyph unicode="&#216;" horiz-adv-x="842" d="M150 134q-23 38 -37.5 83q-14.5 45 -14.5 101q0 84 31 150.5q31 66.5 79 112.5q32 30 66.5 50q34.5 20 70 31q35.5 11 70.5 15.5q35 4.5 67 4.5q60 0 112 -13.5q52 -13.5 105 -47.5l104 93l79 -84l-105 -93q28 -51 38 -97q10 -46 10 -81q0 -34 -6 -70.5q-6 -36.5 -19 -72q-13 -35.5 -32 -68.5q-19 -33 -46 -60q-32 -32 -66.5 -52.5q-34.5 -20.5 -70.5 -31.5q-36 -11 -71.5 -15q-35.5 -4 -68.5 -4q-66 0 -117 14.5q-51 14.5 -101 49.5l-108 -96l-78 84zM579 515q-26 15 -51 20q-25 5 -52 5q-98 0 -159 -64q-29 -31 -45 -71q-16 -40 -16 -82q0 -23 4 -43q4 -20 12 -38zM346 155q28 -16 54.5 -22q26.5 -6 55.5 -6q43 0 80 12q37 12 69 45q32 33 47 77q15 44 15 87q0 15 -2.5 35.5q-2.5 20.5 -10.5 43.5z" />
<glyph unicode="&#217;" horiz-adv-x="710" d="M305 667l-44 -364q-2 -16 -3.5 -26.5q-1.5 -10.5 -1.5 -31.5q0 -20 5 -43.5q5 -23.5 24 -42.5q14 -13 35.5 -21.5q21.5 -8.5 52.5 -8.5q38 0 61.5 10q23.5 10 36.5 23q12 12 20 28q8 16 13 33.5q5 17.5 7.5 34.5q2.5 17 4.5 31l46 378h154l-48 -388q-4 -30 -8.5 -60q-4.5 -30 -12.5 -58.5q-8 -28.5 -22 -54.5q-14 -26 -36 -49q-25 -26 -54.5 -40.5q-29.5 -14.5 -59.5 -21.5q-30 -7 -57 -8.5q-27 -1.5 -48 -1.5q-25 0 -52.5 2q-27.5 2 -55 9.5q-27.5 7.5 -54 21q-26.5 13.5 -49.5 36.5q-32 31 -45.5 69q-13.5 38 -13.5 85q0 11 1 25q1 14 2 28.5q1 14.5 2.5 28q1.5 13.5 2.5 23.5l43 354zM296 853l105 72l114 -148l-71 -53z" />
<glyph unicode="&#218;" horiz-adv-x="710" d="M305 667l-44 -364q-2 -16 -3.5 -26.5q-1.5 -10.5 -1.5 -31.5q0 -20 5 -43.5q5 -23.5 24 -42.5q14 -13 35.5 -21.5q21.5 -8.5 52.5 -8.5q38 0 61.5 10q23.5 10 36.5 23q12 12 20 28q8 16 13 33.5q5 17.5 7.5 34.5q2.5 17 4.5 31l46 378h154l-48 -388q-4 -30 -8.5 -60q-4.5 -30 -12.5 -58.5q-8 -28.5 -22 -54.5q-14 -26 -36 -49q-25 -26 -54.5 -40.5q-29.5 -14.5 -59.5 -21.5q-30 -7 -57 -8.5q-27 -1.5 -48 -1.5q-25 0 -52.5 2q-27.5 2 -55 9.5q-27.5 7.5 -54 21q-26.5 13.5 -49.5 36.5q-32 31 -45.5 69q-13.5 38 -13.5 85q0 11 1 25q1 14 2 28.5q1 14.5 2.5 28q1.5 13.5 2.5 23.5l43 354zM610 853l-180 -129l-59 53l153 148z" />
<glyph unicode="&#219;" horiz-adv-x="710" d="M305 667l-44 -364q-2 -16 -3.5 -26.5q-1.5 -10.5 -1.5 -31.5q0 -20 5 -43.5q5 -23.5 24 -42.5q14 -13 35.5 -21.5q21.5 -8.5 52.5 -8.5q38 0 61.5 10q23.5 10 36.5 23q12 12 20 28q8 16 13 33.5q5 17.5 7.5 34.5q2.5 17 4.5 31l46 378h154l-48 -388q-4 -30 -8.5 -60q-4.5 -30 -12.5 -58.5q-8 -28.5 -22 -54.5q-14 -26 -36 -49q-25 -26 -54.5 -40.5q-29.5 -14.5 -59.5 -21.5q-30 -7 -57 -8.5q-27 -1.5 -48 -1.5q-25 0 -52.5 2q-27.5 2 -55 9.5q-27.5 7.5 -54 21q-26.5 13.5 -49.5 36.5q-32 31 -45.5 69q-13.5 38 -13.5 85q0 11 1 25q1 14 2 28.5q1 14.5 2.5 28q1.5 13.5 2.5 23.5l43 354zM249 797l205 140l172 -140l-66 -71l-114 93l-133 -93z" />
<glyph unicode="&#220;" horiz-adv-x="710" d="M305 667l-44 -364q-2 -16 -3.5 -26.5q-1.5 -10.5 -1.5 -31.5q0 -20 5 -43.5q5 -23.5 24 -42.5q14 -13 35.5 -21.5q21.5 -8.5 52.5 -8.5q38 0 61.5 10q23.5 10 36.5 23q12 12 20 28q8 16 13 33.5q5 17.5 7.5 34.5q2.5 17 4.5 31l46 378h154l-48 -388q-4 -30 -8.5 -60q-4.5 -30 -12.5 -58.5q-8 -28.5 -22 -54.5q-14 -26 -36 -49q-25 -26 -54.5 -40.5q-29.5 -14.5 -59.5 -21.5q-30 -7 -57 -8.5q-27 -1.5 -48 -1.5q-25 0 -52.5 2q-27.5 2 -55 9.5q-27.5 7.5 -54 21q-26.5 13.5 -49.5 36.5q-32 31 -45.5 69q-13.5 38 -13.5 85q0 11 1 25q1 14 2 28.5q1 14.5 2.5 28q1.5 13.5 2.5 23.5l43 354zM257 811q0 32 23.5 55.5q23.5 23.5 55.5 23.5q32 0 55.5 -23.5q23.5 -23.5 23.5 -55.5q0 -32 -23.5 -55.5q-23.5 -23.5 -55.5 -23.5q-32 0 -55.5 23.5q-23.5 23.5 -23.5 55.5zt0 0zM475 811q0 32 23.5 55.5q23.5 23.5 55.5 23.5q32 0 55.5 -23.5q23.5 -23.5 23.5 -55.5q0 -32 -23.5 -55.5q-23.5 -23.5 -55.5 -23.5q-32 0 -55.5 23.5t-23.5 55.5z" />
<glyph unicode="&#221;" horiz-adv-x="632" d="M274 311l-195 356h176l109 -207l159 207h188l-283 -356l-38 -311h-154zM571 853l-180 -129l-59 53l153 148z" />
<glyph unicode="&#222;" horiz-adv-x="572" d="M306 667l-11 -92h63q26 0 52 -1q26 -1 50 -6.5q24 -5.5 47 -17q23 -11.5 43 -31.5q23 -23 38.5 -57.5q15.5 -34.5 15.5 -85.5q0 -56 -17.5 -101.5q-17.5 -45.5 -47.5 -73.5q-22 -20 -49 -32q-27 -12 -55 -18q-28 -6 -55.5 -7.5q-27.5 -1.5 -49.5 -1.5h-89l-17 -142h-154l82 667zM257 268h57q26 0 55.5 4q29.5 4 51.5 25q17 17 21.5 36.5q4.5 19.5 4.5 32.5q0 14 -4 29.5q-4 15.5 -18 28.5q-18 17 -44 21q-26 4 -48 4l-53 0z" />
<glyph unicode="&#223;" horiz-adv-x="585" d="M60 0l62 502q3 21 7.5 44q4.5 23 12.5 46q8 23 20 45q12 22 29 40q38 40 82.5 51.5q44.5 11.5 83.5 11.5q18 0 39 -2q21 -2 42.5 -8.5q21.5 -6.5 42.5 -18.5q21 -12 40 -31q24 -25 37 -58q13 -33 13 -72q0 -30 -8.5 -58q-8.5 -28 -25.5 -48q-13 -16 -32 -28.5q-19 -12.5 -44 -19.5q19 -6 36 -16q17 -10 31 -23q33 -32 43 -67q10 -35 10 -67q0 -56 -17 -99q-17 -43 -46 -71q-45 -43 -109.5 -55q-64.5 -12 -139.5 -12h-6l16 124h5q28 0 59.5 6q31.5 6 54.5 29q15 16 23 38.5q8 22.5 8 42.5q0 31 -10 54q-10 23 -27 35q-17 12 -43 16.5q-26 4.5 -45 4.5l16 122h5q18 0 37 3q19 3 36 16q13 10 22.5 25.5q9.5 15.5 9.5 40.5q0 20 -6.5 33.5q-6.5 13.5 -14.5 20.5q-8 8 -21 13.5q-13 5.5 -34 5.5q-34 0 -54 -20q-18 -17 -24 -40.5q-6 -23.5 -9 -46.5l-63 -509z" />
<glyph unicode="&#224;" horiz-adv-x="598" d="M448 446h144l-55 -446h-144l11 51q-12 -14 -28.5 -28q-16.5 -14 -34.5 -22q-23 -11 -46.5 -13.5q-23.5 -2.5 -36.5 -2.5q-42 0 -75.5 12q-33.5 12 -62.5 43q-25 26 -42.5 66q-17.5 40 -17.5 98q0 62 20 110.5q20 48.5 52 81.5q35 35 76 50q41 15 88 15q20 0 42.5 -3q22.5 -3 44.5 -14q13 -6 29.5 -18.5q16.5 -12.5 31.5 -33.5zM327 337q-52 0 -85 -33q-15 -15 -24.5 -38q-9.5 -23 -9.5 -51q0 -28 9 -46.5q9 -18.5 20 -29.5q16 -17 35 -23.5q19 -6.5 41 -6.5q31 0 51 9.5q20 9.5 31 20.5q20 19 29 45q9 26 9 51q0 24 -8.5 44q-8.5 20 -22.5 33q-10 9 -28 17q-18 8 -47 8zt0 0zM218 650l103 65l103 -152l-71 -48z" />
<glyph unicode="&#225;" horiz-adv-x="598" d="M448 446h144l-55 -446h-144l11 51q-12 -14 -28.5 -28q-16.5 -14 -34.5 -22q-23 -11 -46.5 -13.5q-23.5 -2.5 -36.5 -2.5q-42 0 -75.5 12q-33.5 12 -62.5 43q-25 26 -42.5 66q-17.5 40 -17.5 98q0 62 20 110.5q20 48.5 52 81.5q35 35 76 50q41 15 88 15q20 0 42.5 -3q22.5 -3 44.5 -14q13 -6 29.5 -18.5q16.5 -12.5 31.5 -33.5zM327 337q-52 0 -85 -33q-15 -15 -24.5 -38q-9.5 -23 -9.5 -51q0 -28 9 -46.5q9 -18.5 20 -29.5q16 -17 35 -23.5q19 -6.5 41 -6.5q31 0 51 9.5q20 9.5 31 20.5q20 19 29 45q9 26 9 51q0 24 -8.5 44q-8.5 20 -22.5 33q-10 9 -28 17q-18 8 -47 8zt0 0zM491 650l-169 -135l-59 48l142 152z" />
<glyph unicode="&#226;" horiz-adv-x="598" d="M448 446h144l-55 -446h-144l11 51q-12 -14 -28.5 -28q-16.5 -14 -34.5 -22q-23 -11 -46.5 -13.5q-23.5 -2.5 -36.5 -2.5q-42 0 -75.5 12q-33.5 12 -62.5 43q-25 26 -42.5 66q-17.5 40 -17.5 98q0 62 20 110.5q20 48.5 52 81.5q35 35 76 50q41 15 88 15q20 0 42.5 -3q22.5 -3 44.5 -14q13 -6 29.5 -18.5q16.5 -12.5 31.5 -33.5zM327 337q-52 0 -85 -33q-15 -15 -24.5 -38q-9.5 -23 -9.5 -51q0 -28 9 -46.5q9 -18.5 20 -29.5q16 -17 35 -23.5q19 -6.5 41 -6.5q31 0 51 9.5q20 9.5 31 20.5q20 19 29 45q9 26 9 51q0 24 -8.5 44q-8.5 20 -22.5 33q-10 9 -28 17q-18 8 -47 8zt0 0zM220 515l-62 69l200 142l167 -142l-68 -69l-106 95z" />
<glyph unicode="&#227;" horiz-adv-x="598" d="M448 446h144l-55 -446h-144l11 51q-12 -14 -28.5 -28q-16.5 -14 -34.5 -22q-23 -11 -46.5 -13.5q-23.5 -2.5 -36.5 -2.5q-42 0 -75.5 12q-33.5 12 -62.5 43q-25 26 -42.5 66q-17.5 40 -17.5 98q0 62 20 110.5q20 48.5 52 81.5q35 35 76 50q41 15 88 15q20 0 42.5 -3q22.5 -3 44.5 -14q13 -6 29.5 -18.5q16.5 -12.5 31.5 -33.5zM327 337q-52 0 -85 -33q-15 -15 -24.5 -38q-9.5 -23 -9.5 -51q0 -28 9 -46.5q9 -18.5 20 -29.5q16 -17 35 -23.5q19 -6.5 41 -6.5q31 0 51 9.5q20 9.5 31 20.5q20 19 29 45q9 26 9 51q0 24 -8.5 44q-8.5 20 -22.5 33q-10 9 -28 17q-18 8 -47 8zt0 0zM531 613q-2 -5 -13.5 -23.5q-11.5 -18.5 -30.5 -36.5q-17 -16 -35.5 -25q-18.5 -9 -41.5 -9q-17 0 -33 4.5q-16 4.5 -30 10.5l-32 13q-11 5 -23.5 9.5q-12.5 4.5 -26.5 4.5q-14 0 -27.5 -8.5q-13.5 -8.5 -24.5 -29.5l-59 44q6 14 17 32q11 18 24 31q31 31 77 31q20 0 35.5 -4.5q15.5 -4.5 32.5 -11.5l32 -13q21 -8 32.5 -10.5q11.5 -2.5 19.5 -2.5q20 0 30.5 14.5q10.5 14.5 14.5 23.5z" />
<glyph unicode="&#228;" horiz-adv-x="598" d="M448 446h144l-55 -446h-144l11 51q-12 -14 -28.5 -28q-16.5 -14 -34.5 -22q-23 -11 -46.5 -13.5q-23.5 -2.5 -36.5 -2.5q-42 0 -75.5 12q-33.5 12 -62.5 43q-25 26 -42.5 66q-17.5 40 -17.5 98q0 62 20 110.5q20 48.5 52 81.5q35 35 76 50q41 15 88 15q20 0 42.5 -3q22.5 -3 44.5 -14q13 -6 29.5 -18.5q16.5 -12.5 31.5 -33.5zM327 337q-52 0 -85 -33q-15 -15 -24.5 -38q-9.5 -23 -9.5 -51q0 -28 9 -46.5q9 -18.5 20 -29.5q16 -17 35 -23.5q19 -6.5 41 -6.5q31 0 51 9.5q20 9.5 31 20.5q20 19 29 45q9 26 9 51q0 24 -8.5 44q-8.5 20 -22.5 33q-10 9 -28 17q-18 8 -47 8zt0 0zM156 599q0 32 23.5 55.5q23.5 23.5 55.5 23.5q32 0 55.5 -23.5q23.5 -23.5 23.5 -55.5q0 -32 -23.5 -55.5q-23.5 -23.5 -55.5 -23.5q-32 0 -55.5 23.5q-23.5 23.5 -23.5 55.5zt0 0zM374 599q0 32 23.5 55.5q23.5 23.5 55.5 23.5q32 0 55.5 -23.5q23.5 -23.5 23.5 -55.5q0 -32 -23.5 -55.5q-23.5 -23.5 -55.5 -23.5q-32 0 -55.5 23.5t-23.5 55.5z" />
<glyph unicode="&#229;" horiz-adv-x="598" d="M448 446h144l-55 -446h-144l11 51q-12 -14 -28.5 -28q-16.5 -14 -34.5 -22q-23 -11 -46.5 -13.5q-23.5 -2.5 -36.5 -2.5q-42 0 -75.5 12q-33.5 12 -62.5 43q-25 26 -42.5 66q-17.5 40 -17.5 98q0 62 20 110.5q20 48.5 52 81.5q35 35 76 50q41 15 88 15q20 0 42.5 -3q22.5 -3 44.5 -14q13 -6 29.5 -18.5q16.5 -12.5 31.5 -33.5zM327 337q-52 0 -85 -33q-15 -15 -24.5 -38q-9.5 -23 -9.5 -51q0 -28 9 -46.5q9 -18.5 20 -29.5q16 -17 35 -23.5q19 -6.5 41 -6.5q31 0 51 9.5q20 9.5 31 20.5q20 19 29 45q9 26 9 51q0 24 -8.5 44q-8.5 20 -22.5 33q-10 9 -28 17q-18 8 -47 8zt0 0zM330 650q-8 0 -16.5 -2q-8.5 -2 -14.5 -7q-5 -5 -9 -12q-4 -7 -4 -15q0 -8 4 -15q4 -7 9 -12q6 -5 14.5 -7q8.5 -2 16.5 -2q8 0 16.5 2q8.5 2 14.5 7q5 5 9 12q4 7 4 15q0 8 -4 15q-4 7 -9 12q-6 5 -14.5 7q-8.5 2 -16.5 2zt0 0zM444 614q0 -23 -8 -38.5q-8 -15.5 -19 -26.5q-13 -12 -34.5 -21.5q-21.5 -9.5 -52.5 -9.5q-31 0 -52.5 9.5q-21.5 9.5 -34.5 21.5q-11 11 -19 26.5q-8 15.5 -8 38.5q0 23 8 38.5q8 15.5 19 26.5q13 12 34.5 21.5q21.5 9.5 52.5 9.5q31 0 52.5 -9.5q21.5 -9.5 34.5 -21.5q11 -11 19 -26.5t8 -38.5z" />
<glyph unicode="&#230;" horiz-adv-x="840" d="M817 132q-14 -38 -37.5 -67q-23.5 -29 -49.5 -46q-18 -12 -38 -18.5q-20 -6.5 -38 -10q-18 -3.5 -33.5 -4.5q-15.5 -1 -25.5 -1q-30 0 -60.5 5q-30.5 5 -52.5 15q-14 7 -32 19.5q-18 12.5 -34 35.5q-17 -23 -37 -37q-20 -14 -38 -22q-14 -5 -38.5 -10.5q-24.5 -5.5 -67.5 -5.5q-14 0 -32 1q-18 1 -36.5 5q-18.5 4 -37 11q-18.5 7 -33.5 19q-21 17 -34 43.5q-13 26.5 -13 59.5q0 45 19 75.5q19 30.5 44 47.5q16 11 34 17.5q18 6.5 36 9.5q18 3 35.5 4q17.5 1 31.5 1q41 0 67.5 -6.5q26.5 -6.5 48.5 -20.5q5 32 -3.5 51.5q-8.5 19.5 -22.5 30.5q-14 11 -34.5 16q-20.5 5 -43.5 5q-14 0 -42.5 -3.5q-28.5 -3.5 -72.5 -18.5l13 110q24 7 56 12.5q32 5.5 71 5.5q37 0 64 -6q27 -6 46 -16.5q19 -10.5 31.5 -24.5q12.5 -14 20.5 -30q9 10 23 23.5q14 13.5 35 25.5q21 12 49.5 20q28.5 8 66.5 8q36 0 77 -10.5q41 -10.5 76 -45.5q23 -23 41 -61.5q18 -38.5 18 -98.5q0 -14 -1 -25q-1 -11 -3 -22l-330 0q0 -19 6 -42.5q6 -23.5 20 -38.5q9 -11 26.5 -19q17.5 -8 45.5 -8q32 0 53 14.5q21 14.5 32 36.5zM268 192q-19 0 -37.5 -6q-18.5 -6 -29.5 -18q-8 -8 -11 -17q-3 -9 -3 -17q0 -19 15 -32q8 -8 22.5 -13.5q14.5 -5.5 37.5 -5.5q17 0 35.5 4.5q18.5 4.5 32.5 15.5q18 16 18 39q0 10 -4 17q-4 7 -10 13q-13 11 -32 15.5q-19 4.5 -34 4.5zt0 0zM706 284q-3 14 -11 29.5q-8 15.5 -19 26.5q-10 9 -25.5 15q-15.5 6 -35.5 6q-23 0 -39.5 -7q-16.5 -7 -26.5 -16q-23 -20 -34 -54z" />
<glyph unicode="&#231;" horiz-adv-x="431" d="M428 301q-5 4 -13.5 10.5q-8.5 6.5 -21 12.5q-12.5 6 -29 10.5q-16.5 4.5 -36.5 4.5q-38 0 -58.5 -13q-20.5 -13 -28.5 -21q-17 -18 -25 -42q-8 -24 -8 -47q0 -27 9 -46.5q9 -19.5 23 -32.5q31 -30 78 -30q29 0 52 11q23 11 39 25v-132q-51 -17 -80.5 -21.5q-29.5 -4.5 -53.5 -4.5q-45 0 -82.5 12.5q-37.5 12.5 -72.5 49.5q-27 29 -43.5 69q-16.5 40 -16.5 92q0 54 18 100.5q18 46.5 52 81.5q29 29 74 50q45 21 111 21q34 0 66 -6.5q32 -6.5 64 -22.5zM350 -97l-126 -139l-74 40l106 150z" />
<glyph unicode="&#232;" horiz-adv-x="542" d="M399 283q-2 16 -9.5 32q-7.5 16 -19.5 26q-12 10 -28.5 14q-16.5 4 -30.5 4q-26 0 -42.5 -9q-16.5 -9 -25.5 -18q-8 -9 -15 -21.5q-7 -12.5 -10 -27.5zM204 195q-1 -17 4 -35.5q5 -18.5 14 -31.5q14 -20 33 -25.5q19 -5.5 36 -5.5q13 0 28 2q15 2 29 11q10 7 18 18q8 11 13 22l145 -12q-14 -34 -35.5 -63.5q-21.5 -29.5 -45.5 -47.5q-19 -14 -39.5 -22.5q-20.5 -8.5 -40.5 -13q-20 -4.5 -39 -5.5q-19 -1 -34 -1q-21 0 -43 2q-22 2 -44.5 8q-22.5 6 -44.5 18q-22 12 -42 32q-32 32 -44 71.5q-12 39.5 -12 84.5q0 37 7 67.5q7 30.5 18 55q11 24.5 24.5 43.5q13.5 19 27.5 32q41 38 88 50q47 12 89 12q57 0 99 -16q42 -16 68 -41q22 -22 34.5 -50q12.5 -28 18 -56.5q5.5 -28.5 5.5 -55.5q0 -27 -2 -47zM216 650l103 65l103 -152l-71 -48z" />
<glyph unicode="&#233;" horiz-adv-x="542" d="M399 283q-2 16 -9.5 32q-7.5 16 -19.5 26q-12 10 -28.5 14q-16.5 4 -30.5 4q-26 0 -42.5 -9q-16.5 -9 -25.5 -18q-8 -9 -15 -21.5q-7 -12.5 -10 -27.5zM204 195q-1 -17 4 -35.5q5 -18.5 14 -31.5q14 -20 33 -25.5q19 -5.5 36 -5.5q13 0 28 2q15 2 29 11q10 7 18 18q8 11 13 22l145 -12q-14 -34 -35.5 -63.5q-21.5 -29.5 -45.5 -47.5q-19 -14 -39.5 -22.5q-20.5 -8.5 -40.5 -13q-20 -4.5 -39 -5.5q-19 -1 -34 -1q-21 0 -43 2q-22 2 -44.5 8q-22.5 6 -44.5 18q-22 12 -42 32q-32 32 -44 71.5q-12 39.5 -12 84.5q0 37 7 67.5q7 30.5 18 55q11 24.5 24.5 43.5q13.5 19 27.5 32q41 38 88 50q47 12 89 12q57 0 99 -16q42 -16 68 -41q22 -22 34.5 -50q12.5 -28 18 -56.5q5.5 -28.5 5.5 -55.5q0 -27 -2 -47zM509 650l-169 -135l-59 48l142 152z" />
<glyph unicode="&#234;" horiz-adv-x="542" d="M399 283q-2 16 -9.5 32q-7.5 16 -19.5 26q-12 10 -28.5 14q-16.5 4 -30.5 4q-26 0 -42.5 -9q-16.5 -9 -25.5 -18q-8 -9 -15 -21.5q-7 -12.5 -10 -27.5zM204 195q-1 -17 4 -35.5q5 -18.5 14 -31.5q14 -20 33 -25.5q19 -5.5 36 -5.5q13 0 28 2q15 2 29 11q10 7 18 18q8 11 13 22l145 -12q-14 -34 -35.5 -63.5q-21.5 -29.5 -45.5 -47.5q-19 -14 -39.5 -22.5q-20.5 -8.5 -40.5 -13q-20 -4.5 -39 -5.5q-19 -1 -34 -1q-21 0 -43 2q-22 2 -44.5 8q-22.5 6 -44.5 18q-22 12 -42 32q-32 32 -44 71.5q-12 39.5 -12 84.5q0 37 7 67.5q7 30.5 18 55q11 24.5 24.5 43.5q13.5 19 27.5 32q41 38 88 50q47 12 89 12q57 0 99 -16q42 -16 68 -41q22 -22 34.5 -50q12.5 -28 18 -56.5q5.5 -28.5 5.5 -55.5q0 -27 -2 -47zM210 515l-62 69l200 142l167 -142l-68 -69l-106 95z" />
<glyph unicode="&#235;" horiz-adv-x="542" d="M399 283q-2 16 -9.5 32q-7.5 16 -19.5 26q-12 10 -28.5 14q-16.5 4 -30.5 4q-26 0 -42.5 -9q-16.5 -9 -25.5 -18q-8 -9 -15 -21.5q-7 -12.5 -10 -27.5zM204 195q-1 -17 4 -35.5q5 -18.5 14 -31.5q14 -20 33 -25.5q19 -5.5 36 -5.5q13 0 28 2q15 2 29 11q10 7 18 18q8 11 13 22l145 -12q-14 -34 -35.5 -63.5q-21.5 -29.5 -45.5 -47.5q-19 -14 -39.5 -22.5q-20.5 -8.5 -40.5 -13q-20 -4.5 -39 -5.5q-19 -1 -34 -1q-21 0 -43 2q-22 2 -44.5 8q-22.5 6 -44.5 18q-22 12 -42 32q-32 32 -44 71.5q-12 39.5 -12 84.5q0 37 7 67.5q7 30.5 18 55q11 24.5 24.5 43.5q13.5 19 27.5 32q41 38 88 50q47 12 89 12q57 0 99 -16q42 -16 68 -41q22 -22 34.5 -50q12.5 -28 18 -56.5q5.5 -28.5 5.5 -55.5q0 -27 -2 -47zM147 599q0 32 23.5 55.5q23.5 23.5 55.5 23.5q32 0 55.5 -23.5q23.5 -23.5 23.5 -55.5q0 -32 -23.5 -55.5q-23.5 -23.5 -55.5 -23.5q-32 0 -55.5 23.5q-23.5 23.5 -23.5 55.5zt0 0zM365 599q0 32 23.5 55.5q23.5 23.5 55.5 23.5q32 0 55.5 -23.5q23.5 -23.5 23.5 -55.5q0 -32 -23.5 -55.5q-23.5 -23.5 -55.5 -23.5q-32 0 -55.5 23.5t-23.5 55.5z" />
<glyph unicode="&#236;" horiz-adv-x="276" d="M264 446l-55 -446h-144l55 446zM85 650l104 65l83 -152l-71 -48z" />
<glyph unicode="&#237;" horiz-adv-x="276" d="M264 446l-55 -446h-144l55 446zM348 650l-149 -135l-59 48l122 152z" />
<glyph unicode="&#238;" horiz-adv-x="276" d="M265 446l-55 -446h-144l55 446zM110 515l-59 69l176 142l142 -142l-72 -69l-82 87z" />
<glyph unicode="&#239;" horiz-adv-x="276" d="M265 446l-55 -446h-144l55 446zM48 599q0 32 21 55.5q21 23.5 50 23.5q12 0 24.5 -5q12.5 -5 23 -15q10.5 -10 17 -25q6.5 -15 6.5 -34q0 -20 -6.5 -34.5q-6.5 -14.5 -17 -24.5q-10.5 -10 -23 -15q-12.5 -5 -24.5 -5q-29 0 -50 23.5q-21 23.5 -21 55.5zt0 0zM236 599q0 19 6.5 34q6.5 15 17 25q10.5 10 23 15q12.5 5 24.5 5q29 0 50 -23.5q21 -23.5 21 -55.5q0 -32 -21 -55.5q-21 -23.5 -50 -23.5q-12 0 -24.5 5q-12.5 5 -23 15q-10.5 10 -17 24.5t-6.5 34.5z" />
<glyph unicode="&#240;" horiz-adv-x="580" d="M192 692q81 -5 132.5 -19.5q51.5 -14.5 84.5 -29.5l154 56l29 -76l-110 -39q22 -20 39.5 -44.5q17.5 -24.5 31.5 -57.5q15 -37 20 -73q5 -36 5 -74q0 -38 -3.5 -76q-3.5 -38 -13 -73.5q-9.5 -35.5 -26 -68q-16.5 -32.5 -43.5 -59.5q-23 -23 -47.5 -37.5q-24.5 -14.5 -49 -22.5q-24.5 -8 -49.5 -10.5q-25 -2.5 -49 -2.5q-45 0 -90.5 12.5q-45.5 12.5 -84.5 50.5q-8 8 -19 21q-11 13 -20.5 32q-9.5 19 -16 44q-6.5 25 -6.5 57q0 51 18 96.5q18 45.5 50 77.5q37 37 81 52q44 15 92 15q59 0 92 -16q33 -16 51 -34q-5 46 -27.5 82q-22.5 36 -58.5 58l-195 -79l-27 75l137 51q-67 18 -132 16zM319 327q-27 0 -45.5 -8.5q-18.5 -8.5 -30.5 -20.5q-15 -15 -25 -39q-10 -24 -10 -53q0 -23 7.5 -42q7.5 -19 19.5 -31q10 -10 27 -18q17 -8 41 -8q27 0 45 8.5q18 8.5 29 18.5q20 18 29 44q9 26 9 51q0 26 -8 44.5q-8 18.5 -20 29.5q-11 11 -28 17.5t-40 6.5z" />
<glyph unicode="&#241;" horiz-adv-x="567" d="M255 446l-7 -49q25 26 55 42q24 13 44.5 16q20.5 3 43.5 3q28 0 59 -6.5q31 -6.5 57 -31.5q13 -13 20.5 -27q7.5 -14 11.5 -28.5q4 -14.5 5 -27.5q1 -13 1 -23q0 -11 -1 -30q-1 -19 -6 -55l-27 -229h-144l24 193q5 35 5.5 51q0.5 16 0.5 21q0 13 -3.5 27.5q-3.5 14.5 -14.5 26.5q-12 12 -27 15.5q-15 3.5 -26 3.5q-19 0 -35 -5q-16 -5 -30 -19q-10 -10 -16 -22.5q-6 -12.5 -10 -25.5q-4 -13 -6 -25q-2 -12 -3 -21l-26 -220h-144l55 446zM561 613q-2 -5 -13.5 -23.5q-11.5 -18.5 -30.5 -36.5q-17 -16 -35.5 -25q-18.5 -9 -41.5 -9q-17 0 -33 4.5q-16 4.5 -30 10.5l-32 13q-11 5 -23.5 9.5q-12.5 4.5 -26.5 4.5q-14 0 -27.5 -8.5q-13.5 -8.5 -24.5 -29.5l-59 44q6 14 17 32q11 18 24 31q31 31 77 31q20 0 35.5 -4.5q15.5 -4.5 32.5 -11.5l32 -13q21 -8 32.5 -10.5q11.5 -2.5 19.5 -2.5q20 0 30.5 14.5q10.5 14.5 14.5 23.5z" />
<glyph unicode="&#242;" horiz-adv-x="592" d="M337 461q54 0 104 -18q50 -18 83 -51q26 -26 43 -64q17 -38 17 -87q0 -49 -18.5 -98q-18.5 -49 -53.5 -85q-24 -24 -49.5 -38.5q-25.5 -14.5 -52 -22q-26.5 -7.5 -53 -10q-26.5 -2.5 -50.5 -2.5q-21 0 -45 2q-24 2 -48 9q-24 7 -48 20.5q-24 13.5 -45 35.5q-26 27 -43.5 67q-17.5 40 -17.5 90q0 49 18 95q18 46 54 81q37 36 90 56q53 20 115 20zt0 0zM315 107q27 0 48.5 9q21.5 9 35.5 23q19 18 28 43.5q9 25.5 9 51.5q0 26 -8.5 45.5q-8.5 19.5 -21.5 31.5q-14 14 -36 21q-22 7 -42 7q-20 0 -41.5 -7.5q-21.5 -7.5 -38.5 -23.5q-20 -18 -30 -43.5q-10 -25.5 -10 -51.5q0 -23 8 -42.5q8 -19.5 21 -33.5q11 -11 30 -20.5q19 -9.5 48 -9.5zt0 0zM208 650l103 65l103 -152l-71 -48z" />
<glyph unicode="&#243;" horiz-adv-x="592" d="M337 461q54 0 104 -18q50 -18 83 -51q26 -26 43 -64q17 -38 17 -87q0 -49 -18.5 -98q-18.5 -49 -53.5 -85q-24 -24 -49.5 -38.5q-25.5 -14.5 -52 -22q-26.5 -7.5 -53 -10q-26.5 -2.5 -50.5 -2.5q-21 0 -45 2q-24 2 -48 9q-24 7 -48 20.5q-24 13.5 -45 35.5q-26 27 -43.5 67q-17.5 40 -17.5 90q0 49 18 95q18 46 54 81q37 36 90 56q53 20 115 20zt0 0zM315 107q27 0 48.5 9q21.5 9 35.5 23q19 18 28 43.5q9 25.5 9 51.5q0 26 -8.5 45.5q-8.5 19.5 -21.5 31.5q-14 14 -36 21q-22 7 -42 7q-20 0 -41.5 -7.5q-21.5 -7.5 -38.5 -23.5q-20 -18 -30 -43.5q-10 -25.5 -10 -51.5q0 -23 8 -42.5q8 -19.5 21 -33.5q11 -11 30 -20.5q19 -9.5 48 -9.5zt0 0zM501 650l-169 -135l-59 48l142 152z" />
<glyph unicode="&#244;" horiz-adv-x="592" d="M337 461q54 0 104 -18q50 -18 83 -51q26 -26 43 -64q17 -38 17 -87q0 -49 -18.5 -98q-18.5 -49 -53.5 -85q-24 -24 -49.5 -38.5q-25.5 -14.5 -52 -22q-26.5 -7.5 -53 -10q-26.5 -2.5 -50.5 -2.5q-21 0 -45 2q-24 2 -48 9q-24 7 -48 20.5q-24 13.5 -45 35.5q-26 27 -43.5 67q-17.5 40 -17.5 90q0 49 18 95q18 46 54 81q37 36 90 56q53 20 115 20zt0 0zM315 107q27 0 48.5 9q21.5 9 35.5 23q19 18 28 43.5q9 25.5 9 51.5q0 26 -8.5 45.5q-8.5 19.5 -21.5 31.5q-14 14 -36 21q-22 7 -42 7q-20 0 -41.5 -7.5q-21.5 -7.5 -38.5 -23.5q-20 -18 -30 -43.5q-10 -25.5 -10 -51.5q0 -23 8 -42.5q8 -19.5 21 -33.5q11 -11 30 -20.5q19 -9.5 48 -9.5zt0 0zM230 515l-62 69l200 142l167 -142l-68 -69l-106 95z" />
<glyph unicode="&#245;" horiz-adv-x="592" d="M337 461q54 0 104 -18q50 -18 83 -51q26 -26 43 -64q17 -38 17 -87q0 -49 -18.5 -98q-18.5 -49 -53.5 -85q-24 -24 -49.5 -38.5q-25.5 -14.5 -52 -22q-26.5 -7.5 -53 -10q-26.5 -2.5 -50.5 -2.5q-21 0 -45 2q-24 2 -48 9q-24 7 -48 20.5q-24 13.5 -45 35.5q-26 27 -43.5 67q-17.5 40 -17.5 90q0 49 18 95q18 46 54 81q37 36 90 56q53 20 115 20zt0 0zM315 107q27 0 48.5 9q21.5 9 35.5 23q19 18 28 43.5q9 25.5 9 51.5q0 26 -8.5 45.5q-8.5 19.5 -21.5 31.5q-14 14 -36 21q-22 7 -42 7q-20 0 -41.5 -7.5q-21.5 -7.5 -38.5 -23.5q-20 -18 -30 -43.5q-10 -25.5 -10 -51.5q0 -23 8 -42.5q8 -19.5 21 -33.5q11 -11 30 -20.5q19 -9.5 48 -9.5zt0 0zM541 613q-2 -5 -13.5 -23.5q-11.5 -18.5 -30.5 -36.5q-17 -16 -35.5 -25q-18.5 -9 -41.5 -9q-17 0 -33 4.5q-16 4.5 -30 10.5l-32 13q-11 5 -23.5 9.5q-12.5 4.5 -26.5 4.5q-14 0 -27.5 -8.5q-13.5 -8.5 -24.5 -29.5l-59 44q6 14 17 32q11 18 24 31q31 31 77 31q20 0 35.5 -4.5q15.5 -4.5 32.5 -11.5l32 -13q21 -8 32.5 -10.5q11.5 -2.5 19.5 -2.5q20 0 30.5 14.5q10.5 14.5 14.5 23.5z" />
<glyph unicode="&#246;" horiz-adv-x="592" d="M337 461q54 0 104 -18q50 -18 83 -51q26 -26 43 -64q17 -38 17 -87q0 -49 -18.5 -98q-18.5 -49 -53.5 -85q-24 -24 -49.5 -38.5q-25.5 -14.5 -52 -22q-26.5 -7.5 -53 -10q-26.5 -2.5 -50.5 -2.5q-21 0 -45 2q-24 2 -48 9q-24 7 -48 20.5q-24 13.5 -45 35.5q-26 27 -43.5 67q-17.5 40 -17.5 90q0 49 18 95q18 46 54 81q37 36 90 56q53 20 115 20zt0 0zM315 107q27 0 48.5 9q21.5 9 35.5 23q19 18 28 43.5q9 25.5 9 51.5q0 26 -8.5 45.5q-8.5 19.5 -21.5 31.5q-14 14 -36 21q-22 7 -42 7q-20 0 -41.5 -7.5q-21.5 -7.5 -38.5 -23.5q-20 -18 -30 -43.5q-10 -25.5 -10 -51.5q0 -23 8 -42.5q8 -19.5 21 -33.5q11 -11 30 -20.5q19 -9.5 48 -9.5zt0 0zM166 599q0 32 23.5 55.5q23.5 23.5 55.5 23.5q32 0 55.5 -23.5q23.5 -23.5 23.5 -55.5q0 -32 -23.5 -55.5q-23.5 -23.5 -55.5 -23.5q-32 0 -55.5 23.5q-23.5 23.5 -23.5 55.5zt0 0zM384 599q0 32 23.5 55.5q23.5 23.5 55.5 23.5q32 0 55.5 -23.5q23.5 -23.5 23.5 -55.5q0 -32 -23.5 -55.5q-23.5 -23.5 -55.5 -23.5q-32 0 -55.5 23.5t-23.5 55.5z" />
<glyph unicode="&#247;" horiz-adv-x="500" d="M73 398h434v-116h-434zM217 510q0 30 21.5 51.5q21.5 21.5 51.5 21.5q30 0 51.5 -21.5q21.5 -21.5 21.5 -51.5q0 -30 -21.5 -51.5q-21.5 -21.5 -51.5 -21.5q-30 0 -51.5 21.5q-21.5 21.5 -21.5 51.5zt0 0zM217 168q0 30 21.5 51.5q21.5 21.5 51.5 21.5q30 0 51.5 -21.5q21.5 -21.5 21.5 -51.5q0 -30 -21.5 -51.5q-21.5 -21.5 -51.5 -21.5q-30 0 -51.5 21.5t-21.5 51.5z" />
<glyph unicode="&#248;" horiz-adv-x="612" d="M111 78q-14 20 -27 52.5q-13 32.5 -13 78.5q0 50 18 95.5q18 45.5 54 80.5q34 33 84.5 54.5q50.5 21.5 120.5 21.5q43 0 79 -9q36 -9 72 -32l88 78l49 -57l-81 -73q19 -27 29.5 -58q10.5 -31 10.5 -69q0 -61 -20 -106q-20 -45 -52 -77q-24 -24 -50 -38.5q-26 -14.5 -51.5 -22q-25.5 -7.5 -50.5 -10q-25 -2.5 -49 -2.5q-46 0 -81 7.5q-35 7.5 -73 30.5l-84 -75l-54 58zM272 121q24 -14 53 -14q35 0 56.5 12.5q21.5 12.5 32.5 23.5q14 16 23.5 38q9.5 22 9.5 48q0 22 -7 42zM395 324q-12 8 -25 11.5q-13 3.5 -30 3.5q-26 0 -46 -8.5q-20 -8.5 -35 -22.5q-17 -16 -28.5 -40q-11.5 -24 -11.5 -52q0 -21 7 -41z" />
<glyph unicode="&#249;" horiz-adv-x="570" d="M567 446l-28 -241q-2 -20 -5.5 -41q-3.5 -21 -10.5 -42q-7 -21 -18.5 -41.5q-11.5 -20.5 -30.5 -38.5q-20 -19 -42.5 -30.5q-22.5 -11.5 -45.5 -17.5q-23 -6 -45.5 -7.5q-22.5 -1.5 -41.5 -1.5q-17 0 -39 1q-22 1 -46 6.5q-24 5.5 -47 15.5q-23 10 -42 28q-23 21 -35.5 53q-12.5 32 -12.5 67q0 14 1.5 33q1.5 19 3.5 30l27 227h144l-26 -222q-2 -21 -3.5 -31q-1.5 -10 -1.5 -18q0 -18 5.5 -30q5.5 -12 13.5 -19q10 -9 26.5 -14q16.5 -5 32.5 -5q17 0 35.5 6q18.5 6 30.5 19q5 5 14.5 22.5q9.5 17.5 14.5 57.5l28 234zM197 650l103 65l103 -152l-71 -48z" />
<glyph unicode="&#250;" horiz-adv-x="570" d="M567 446l-28 -241q-2 -20 -5.5 -41q-3.5 -21 -10.5 -42q-7 -21 -18.5 -41.5q-11.5 -20.5 -30.5 -38.5q-20 -19 -42.5 -30.5q-22.5 -11.5 -45.5 -17.5q-23 -6 -45.5 -7.5q-22.5 -1.5 -41.5 -1.5q-17 0 -39 1q-22 1 -46 6.5q-24 5.5 -47 15.5q-23 10 -42 28q-23 21 -35.5 53q-12.5 32 -12.5 67q0 14 1.5 33q1.5 19 3.5 30l27 227h144l-26 -222q-2 -21 -3.5 -31q-1.5 -10 -1.5 -18q0 -18 5.5 -30q5.5 -12 13.5 -19q10 -9 26.5 -14q16.5 -5 32.5 -5q17 0 35.5 6q18.5 6 30.5 19q5 5 14.5 22.5q9.5 17.5 14.5 57.5l28 234zM511 650l-169 -135l-59 48l142 152z" />
<glyph unicode="&#251;" horiz-adv-x="570" d="M567 446l-28 -241q-2 -20 -5.5 -41q-3.5 -21 -10.5 -42q-7 -21 -18.5 -41.5q-11.5 -20.5 -30.5 -38.5q-20 -19 -42.5 -30.5q-22.5 -11.5 -45.5 -17.5q-23 -6 -45.5 -7.5q-22.5 -1.5 -41.5 -1.5q-17 0 -39 1q-22 1 -46 6.5q-24 5.5 -47 15.5q-23 10 -42 28q-23 21 -35.5 53q-12.5 32 -12.5 67q0 14 1.5 33q1.5 19 3.5 30l27 227h144l-26 -222q-2 -21 -3.5 -31q-1.5 -10 -1.5 -18q0 -18 5.5 -30q5.5 -12 13.5 -19q10 -9 26.5 -14q16.5 -5 32.5 -5q17 0 35.5 6q18.5 6 30.5 19q5 5 14.5 22.5q9.5 17.5 14.5 57.5l28 234zM210 515l-62 69l200 142l167 -142l-68 -69l-106 95z" />
<glyph unicode="&#252;" horiz-adv-x="570" d="M567 446l-28 -241q-2 -20 -5.5 -41q-3.5 -21 -10.5 -42q-7 -21 -18.5 -41.5q-11.5 -20.5 -30.5 -38.5q-20 -19 -42.5 -30.5q-22.5 -11.5 -45.5 -17.5q-23 -6 -45.5 -7.5q-22.5 -1.5 -41.5 -1.5q-17 0 -39 1q-22 1 -46 6.5q-24 5.5 -47 15.5q-23 10 -42 28q-23 21 -35.5 53q-12.5 32 -12.5 67q0 14 1.5 33q1.5 19 3.5 30l27 227h144l-26 -222q-2 -21 -3.5 -31q-1.5 -10 -1.5 -18q0 -18 5.5 -30q5.5 -12 13.5 -19q10 -9 26.5 -14q16.5 -5 32.5 -5q17 0 35.5 6q18.5 6 30.5 19q5 5 14.5 22.5q9.5 17.5 14.5 57.5l28 234zM161 599q0 32 23.5 55.5q23.5 23.5 55.5 23.5q32 0 55.5 -23.5q23.5 -23.5 23.5 -55.5q0 -32 -23.5 -55.5q-23.5 -23.5 -55.5 -23.5q-32 0 -55.5 23.5q-23.5 23.5 -23.5 55.5zt0 0zM379 599q0 32 23.5 55.5q23.5 23.5 55.5 23.5q32 0 55.5 -23.5q23.5 -23.5 23.5 -55.5q0 -32 -23.5 -55.5q-23.5 -23.5 -55.5 -23.5q-32 0 -55.5 23.5t-23.5 55.5z" />
<glyph unicode="&#253;" horiz-adv-x="583" d="M224 57l-173 389h164l99 -244l150 244h169l-431 -675h-162zM517 650l-169 -135l-59 48l142 152z" />
<glyph unicode="&#254;" horiz-adv-x="598" d="M174 -229h-144l118 958h144l-43 -335q14 17 28.5 28q14.5 11 27.5 18q22 11 44 16q22 5 48 5q52 0 84.5 -16q32.5 -16 50.5 -33q27 -27 43 -71q16 -44 16 -96q0 -64 -21 -115.5q-21 -51.5 -54 -84.5q-33 -33 -70 -46.5q-37 -13.5 -81 -13.5q-24 0 -49 3.5q-25 3.5 -48 15.5q-14 8 -29 20q-15 12 -29 31zM341 337q-50 0 -84 -34q-20 -20 -28 -42q-8 -22 -8 -48q0 -16 5 -36q5 -20 22 -37q13 -14 32.5 -22.5q19.5 -8.5 42.5 -8.5q22 0 43 8q21 8 37 23q18 17 29 44q11 27 11 52q0 21 -8.5 42q-8.5 21 -22.5 33q-14 13 -33 19.5t-38 6.5z" />
<glyph unicode="&#255;" horiz-adv-x="583" d="M224 57l-173 389h164l99 -244l150 244h169l-431 -675h-162zM161 599q0 32 23.5 55.5q23.5 23.5 55.5 23.5q32 0 55.5 -23.5q23.5 -23.5 23.5 -55.5q0 -32 -23.5 -55.5q-23.5 -23.5 -55.5 -23.5q-32 0 -55.5 23.5q-23.5 23.5 -23.5 55.5zt0 0zM379 599q0 32 23.5 55.5q23.5 23.5 55.5 23.5q32 0 55.5 -23.5q23.5 -23.5 23.5 -55.5q0 -32 -23.5 -55.5q-23.5 -23.5 -55.5 -23.5q-32 0 -55.5 23.5t-23.5 55.5z" />
<glyph unicode="&#256;" horiz-adv-x="677" d="M483 126h-252l-63 -126h-166l352 667h142l179 -667h-158zM455 244l-54 235l-112 -235zM240 845h388l-12 -92l-388 0z" />
<glyph unicode="&#257;" horiz-adv-x="598" d="M448 446h144l-55 -446h-144l11 51q-12 -14 -28.5 -28q-16.5 -14 -34.5 -22q-23 -11 -46.5 -13.5q-23.5 -2.5 -36.5 -2.5q-42 0 -75.5 12q-33.5 12 -62.5 43q-25 26 -42.5 66q-17.5 40 -17.5 98q0 62 20 110.5q20 48.5 52 81.5q35 35 76 50q41 15 88 15q20 0 42.5 -3q22.5 -3 44.5 -14q13 -6 29.5 -18.5q16.5 -12.5 31.5 -33.5zM327 337q-52 0 -85 -33q-15 -15 -24.5 -38q-9.5 -23 -9.5 -51q0 -28 9 -46.5q9 -18.5 20 -29.5q16 -17 35 -23.5q19 -6.5 41 -6.5q31 0 51 9.5q20 9.5 31 20.5q20 19 29 45q9 26 9 51q0 24 -8.5 44q-8.5 20 -22.5 33q-10 9 -28 17q-18 8 -47 8zt0 0zM178 633h380l-11 -90l-380 0z" />
<glyph unicode="&#258;" horiz-adv-x="677" d="M483 126h-252l-63 -126h-166l352 667h142l179 -667h-158zM455 244l-54 235l-112 -235zM609 874q-5 -29 -19 -58q-14 -29 -32 -47q-20 -20 -51 -32q-31 -12 -76 -12q-11 0 -26 1q-15 1 -32 5.5q-17 4.5 -34 13q-17 8.5 -31 22.5q-20 20 -31 48.5q-11 28.5 -12 58.5l96 0q1 -11 5 -22.5q4 -11.5 11 -19.5q12 -14 29 -17.5q17 -3.5 28 -3.5q13 0 27.5 3.5q14.5 3.5 27.5 14.5q8 8 15 20q7 12 9 25z" />
<glyph unicode="&#259;" horiz-adv-x="598" d="M448 446h144l-55 -446h-144l11 51q-12 -14 -28.5 -28q-16.5 -14 -34.5 -22q-23 -11 -46.5 -13.5q-23.5 -2.5 -36.5 -2.5q-42 0 -75.5 12q-33.5 12 -62.5 43q-25 26 -42.5 66q-17.5 40 -17.5 98q0 62 20 110.5q20 48.5 52 81.5q35 35 76 50q41 15 88 15q20 0 42.5 -3q22.5 -3 44.5 -14q13 -6 29.5 -18.5q16.5 -12.5 31.5 -33.5zM327 337q-52 0 -85 -33q-15 -15 -24.5 -38q-9.5 -23 -9.5 -51q0 -28 9 -46.5q9 -18.5 20 -29.5q16 -17 35 -23.5q19 -6.5 41 -6.5q31 0 51 9.5q20 9.5 31 20.5q20 19 29 45q9 26 9 51q0 24 -8.5 44q-8.5 20 -22.5 33q-10 9 -28 17q-18 8 -47 8zt0 0zM521 664q-4 -30 -17 -58q-13 -28 -32 -46q-27 -26 -60.5 -34.5q-33.5 -8.5 -65.5 -8.5q-30 0 -64 7.5q-34 7.5 -60 34.5q-17 18 -28 45.5q-11 27.5 -11 59.5l94 0q0 -11 4 -22.5q4 -11.5 11 -19.5q7 -8 20 -13.5q13 -5.5 35 -5.5q19 0 32.5 4.5q13.5 4.5 21.5 11.5q20 15 26 45z" />
<glyph unicode="&#260;" horiz-adv-x="677" d="M496 667l179 -667h-86q-8 -8 -18.5 -20q-10.5 -12 -16.5 -20q-5 -7 -12 -18.5q-7 -11.5 -7 -23.5q0 -6 2 -12.5q2 -6.5 7 -10.5q7 -6 16 -7.5q9 -1.5 11 -1.5q14 0 27.5 5q13.5 5 22.5 10l-27 -77q-31 -17 -66 -17q-13 0 -30 3.5q-17 3.5 -31 16.5q-7 6 -15 19q-8 13 -8 36q0 20 7 36q7 16 18 31q2 2 14 17q12 15 34 34l-35 131h-249l-65 -131h-166l352 667zM453 251l-52 228l-109 -228z" />
<glyph unicode="&#261;" horiz-adv-x="598" d="M448 446h144l-55 -446h-40q-8 -8 -16.5 -18q-8.5 -10 -13.5 -17q-14 -18 -17 -28.5q-3 -10.5 -3 -15.5q0 -5 2 -11q2 -6 8 -11q7 -6 14 -7.5q7 -1.5 12 -1.5q8 0 20.5 2.5q12.5 2.5 31.5 12.5l-27 -77q-20 -11 -37 -14q-17 -3 -31 -3q-15 0 -30.5 3.5q-15.5 3.5 -28.5 14.5q-10 8 -16.5 21q-6.5 13 -6.5 30q0 23 9 40.5q9 17.5 20 31.5q5 6 16 19q11 13 28 29l-38 0l11 51q-18 -21 -35.5 -32q-17.5 -11 -26.5 -16q-23 -11 -43.5 -14.5q-20.5 -3.5 -41.5 -3.5q-39 0 -73 11.5q-34 11.5 -64 43.5q-25 26 -42.5 66q-17.5 40 -17.5 98q0 62 20 110.5q20 48.5 52 81.5q35 35 76 50q41 15 88 15q20 0 42.5 -3q22.5 -3 44.5 -14q13 -6 29.5 -18.5q16.5 -12.5 31.5 -33.5zM327 337q-52 0 -85 -33q-15 -15 -24.5 -38q-9.5 -23 -9.5 -51q0 -28 9 -46.5q9 -18.5 20 -29.5q16 -17 35 -23.5q19 -6.5 41 -6.5q31 0 51 9.5q20 9.5 31 20.5q20 19 29 45q9 26 9 51q0 24 -8.5 44q-8.5 20 -22.5 33q-10 9 -28 17t-47 8z" />
<glyph unicode="&#262;" horiz-adv-x="605" d="M567 21q-8 -4 -22.5 -10q-14.5 -6 -34.5 -12q-20 -6 -46.5 -10q-26.5 -4 -58.5 -4q-47 0 -84.5 9q-37.5 9 -66.5 22.5q-29 13.5 -50 29q-21 15.5 -34 28.5q-16 16 -32 38q-16 22 -29 50.5q-13 28.5 -21 63.5q-8 35 -8 79q0 88 29.5 157q29.5 69 76.5 116q42 42 108.5 73q66.5 31 158.5 31q39 0 70 -5.5q31 -5.5 54.5 -13q23.5 -7.5 39.5 -16q16 -8.5 25 -13.5l-19 -163q-10 10 -25 22q-15 12 -35.5 22q-20.5 10 -47 16.5q-26.5 6.5 -59.5 6.5q-48 0 -87 -14q-39 -14 -71 -49q-31 -33 -45.5 -75q-14.5 -42 -14.5 -82q0 -42 14.5 -78q14.5 -36 37.5 -59q23 -23 59 -37.5q36 -14.5 82 -14.5q50 0 89 17.5q39 17.5 67 40.5zM635 853l-180 -129l-59 53l153 148z" />
<glyph unicode="&#263;" horiz-adv-x="431" d="M428 301q-5 4 -13.5 10.5q-8.5 6.5 -21 12.5q-12.5 6 -29 10.5q-16.5 4.5 -36.5 4.5q-38 0 -58.5 -13q-20.5 -13 -28.5 -21q-17 -18 -25 -42q-8 -24 -8 -47q0 -27 9 -46.5q9 -19.5 23 -32.5q31 -30 78 -30q29 0 52 11q23 11 39 25v-132q-51 -17 -80.5 -21.5q-29.5 -4.5 -53.5 -4.5q-45 0 -82.5 12.5q-37.5 12.5 -72.5 49.5q-27 29 -43.5 69q-16.5 40 -16.5 92q0 54 18 100.5q18 46.5 52 81.5q29 29 74 50q45 21 111 21q34 0 66 -6.5q32 -6.5 64 -22.5zM481 650l-169 -135l-59 48l142 152z" />
<glyph unicode="&#264;" horiz-adv-x="605" d="M567 21q-8 -4 -22.5 -10q-14.5 -6 -34.5 -12q-20 -6 -46.5 -10q-26.5 -4 -58.5 -4q-47 0 -84.5 9q-37.5 9 -66.5 22.5q-29 13.5 -50 29q-21 15.5 -34 28.5q-16 16 -32 38q-16 22 -29 50.5q-13 28.5 -21 63.5q-8 35 -8 79q0 88 29.5 157q29.5 69 76.5 116q42 42 108.5 73q66.5 31 158.5 31q39 0 70 -5.5q31 -5.5 54.5 -13q23.5 -7.5 39.5 -16q16 -8.5 25 -13.5l-19 -163q-10 10 -25 22q-15 12 -35.5 22q-20.5 10 -47 16.5q-26.5 6.5 -59.5 6.5q-48 0 -87 -14q-39 -14 -71 -49q-31 -33 -45.5 -75q-14.5 -42 -14.5 -82q0 -42 14.5 -78q14.5 -36 37.5 -59q23 -23 59 -37.5q36 -14.5 82 -14.5q50 0 89 17.5q39 17.5 67 40.5zM259 797l205 140l172 -140l-66 -71l-114 93l-133 -93z" />
<glyph unicode="&#265;" horiz-adv-x="431" d="M428 301q-5 4 -13.5 10.5q-8.5 6.5 -21 12.5q-12.5 6 -29 10.5q-16.5 4.5 -36.5 4.5q-38 0 -58.5 -13q-20.5 -13 -28.5 -21q-17 -18 -25 -42q-8 -24 -8 -47q0 -27 9 -46.5q9 -19.5 23 -32.5q31 -30 78 -30q29 0 52 11q23 11 39 25v-132q-51 -17 -80.5 -21.5q-29.5 -4.5 -53.5 -4.5q-45 0 -82.5 12.5q-37.5 12.5 -72.5 49.5q-27 29 -43.5 69q-16.5 40 -16.5 92q0 54 18 100.5q18 46.5 52 81.5q29 29 74 50q45 21 111 21q34 0 66 -6.5q32 -6.5 64 -22.5zM190 515l-62 69l200 142l167 -142l-68 -69l-106 95z" />
<glyph unicode="&#266;" horiz-adv-x="605" d="M567 21q-8 -4 -22.5 -10q-14.5 -6 -34.5 -12q-20 -6 -46.5 -10q-26.5 -4 -58.5 -4q-47 0 -84.5 9q-37.5 9 -66.5 22.5q-29 13.5 -50 29q-21 15.5 -34 28.5q-16 16 -32 38q-16 22 -29 50.5q-13 28.5 -21 63.5q-8 35 -8 79q0 88 29.5 157q29.5 69 76.5 116q42 42 108.5 73q66.5 31 158.5 31q39 0 70 -5.5q31 -5.5 54.5 -13q23.5 -7.5 39.5 -16q16 -8.5 25 -13.5l-19 -163q-10 10 -25 22q-15 12 -35.5 22q-20.5 10 -47 16.5q-26.5 6.5 -59.5 6.5q-48 0 -87 -14q-39 -14 -71 -49q-31 -33 -45.5 -75q-14.5 -42 -14.5 -82q0 -42 14.5 -78q14.5 -36 37.5 -59q23 -23 59 -37.5q36 -14.5 82 -14.5q50 0 89 17.5q39 17.5 67 40.5zM392 815q0 36 24.5 60.5q24.5 24.5 60.5 24.5q36 0 60.5 -24.5q24.5 -24.5 24.5 -60.5q0 -36 -24.5 -60.5q-24.5 -24.5 -60.5 -24.5q-36 0 -60.5 24.5t-24.5 60.5z" />
<glyph unicode="&#267;" horiz-adv-x="431" d="M428 301q-5 4 -13.5 10.5q-8.5 6.5 -21 12.5q-12.5 6 -29 10.5q-16.5 4.5 -36.5 4.5q-38 0 -58.5 -13q-20.5 -13 -28.5 -21q-17 -18 -25 -42q-8 -24 -8 -47q0 -27 9 -46.5q9 -19.5 23 -32.5q31 -30 78 -30q29 0 52 11q23 11 39 25v-132q-51 -17 -80.5 -21.5q-29.5 -4.5 -53.5 -4.5q-45 0 -82.5 12.5q-37.5 12.5 -72.5 49.5q-27 29 -43.5 69q-16.5 40 -16.5 92q0 54 18 100.5q18 46.5 52 81.5q29 29 74 50q45 21 111 21q34 0 66 -6.5q32 -6.5 64 -22.5zM265 603q0 35 24 59q24 24 59 24q35 0 59 -24q24 -24 24 -59q0 -35 -24 -59q-24 -24 -59 -24q-35 0 -59 24t-24 59z" />
<glyph unicode="&#268;" horiz-adv-x="605" d="M567 21q-8 -4 -22.5 -10q-14.5 -6 -34.5 -12q-20 -6 -46.5 -10q-26.5 -4 -58.5 -4q-47 0 -84.5 9q-37.5 9 -66.5 22.5q-29 13.5 -50 29q-21 15.5 -34 28.5q-16 16 -32 38q-16 22 -29 50.5q-13 28.5 -21 63.5q-8 35 -8 79q0 88 29.5 157q29.5 69 76.5 116q42 42 108.5 73q66.5 31 158.5 31q39 0 70 -5.5q31 -5.5 54.5 -13q23.5 -7.5 39.5 -16q16 -8.5 25 -13.5l-19 -163q-10 10 -25 22q-15 12 -35.5 22q-20.5 10 -47 16.5q-26.5 6.5 -59.5 6.5q-48 0 -87 -14q-39 -14 -71 -49q-31 -33 -45.5 -75q-14.5 -42 -14.5 -82q0 -42 14.5 -78q14.5 -36 37.5 -59q23 -23 59 -37.5q36 -14.5 82 -14.5q50 0 89 17.5q39 17.5 67 40.5zM588 937l66 -70l-206 -141l-171 141l64 70l115 -93z" />
<glyph unicode="&#269;" horiz-adv-x="431" d="M428 301q-5 4 -13.5 10.5q-8.5 6.5 -21 12.5q-12.5 6 -29 10.5q-16.5 4.5 -36.5 4.5q-38 0 -58.5 -13q-20.5 -13 -28.5 -21q-17 -18 -25 -42q-8 -24 -8 -47q0 -27 9 -46.5q9 -19.5 23 -32.5q31 -30 78 -30q29 0 52 11q23 11 39 25v-132q-51 -17 -80.5 -21.5q-29.5 -4.5 -53.5 -4.5q-45 0 -82.5 12.5q-37.5 12.5 -72.5 49.5q-27 29 -43.5 69q-16.5 40 -16.5 92q0 54 18 100.5q18 46.5 52 81.5q29 29 74 50q45 21 111 21q34 0 66 -6.5q32 -6.5 64 -22.5zM437 726l67 -68l-202 -143l-165 143l63 68l107 -95z" />
<glyph unicode="&#270;" horiz-adv-x="685" d="M347 667q26 0 58.5 -2.5q32.5 -2.5 67 -11.5q34.5 -9 68 -26q33.5 -17 61.5 -45q33 -33 56.5 -88q23.5 -55 23.5 -134q0 -57 -11.5 -101.5q-11.5 -44.5 -28 -77.5q-16.5 -33 -34 -55q-17.5 -22 -30.5 -34q-58 -55 -135 -73.5q-77 -18.5 -168 -18.5h-50h-155l82 667zM240 130h47q17 0 38 1q21 1 43.5 6.5q22.5 5.5 45.5 15.5q23 10 43 28q29 26 48 70.5q19 44.5 19 104.5q0 45 -13 79q-13 34 -35 55q-24 23 -62 35q-38 12 -77 12h-47zM502 937l66 -70l-206 -141l-171 141l64 70l115 -93z" />
<glyph unicode="&#271;" horiz-adv-x="749" d="M482 729h144l-90 -729h-143l8 51q-14 -20 -29.5 -31.5q-15.5 -11.5 -29.5 -18.5q-23 -11 -47.5 -13.5q-24.5 -2.5 -38.5 -2.5q-41 0 -74 12q-33 12 -61 39q-27 27 -44 67.5q-17 40.5 -17 94.5q0 55 19 108q19 53 58 92q35 35 76.5 49q41.5 14 83.5 14q12 0 29.5 -2q17.5 -2 37 -9.5q19.5 -7.5 39.5 -21q20 -13.5 38 -36.5zM326 337q-32 0 -51.5 -11q-19.5 -11 -30.5 -22q-17 -17 -26.5 -40q-9.5 -23 -9.5 -51q0 -29 10 -47.5q10 -18.5 21 -29.5q11 -11 29 -19q18 -8 45 -8q29 0 49.5 10q20.5 10 33.5 24q17 17 26 43q9 26 9 49q0 26 -9.5 44q-9.5 18 -19.5 28q-11 11 -29.5 20.5q-18.5 9.5 -46.5 9.5zt0 0zM715 700l130 -30l-124 -198l-88 20z" />
<glyph unicode="&#272;" horiz-adv-x="712" d="M179 667h195q26 0 58.5 -2.5q32.5 -2.5 67 -11.5q34.5 -9 68 -26q33.5 -17 61.5 -45q33 -33 56.5 -88q23.5 -55 23.5 -134q0 -57 -11.5 -101.5q-11.5 -44.5 -28 -77.5q-16.5 -33 -34 -55q-17.5 -22 -30.5 -34q-58 -55 -135 -73.5q-77 -18.5 -168 -18.5h-52h-153l37 303h-90l14 110h90zM302 413h120l-14 -110h-120l-21 -173h47q17 0 38 1q21 1 43.5 6.5q22.5 5.5 45.5 15.5q23 10 43 28q29 26 48 70.5q19 44.5 19 104.5q0 45 -13 79q-13 34 -35 55q-24 23 -62 35q-38 12 -77 12l-47 0z" />
<glyph unicode="&#273;" horiz-adv-x="608" d="M459 542h-192l11 94h192l12 93h144l-12 -93h80l-11 -94h-80l-67 -542h-143l8 51q-14 -20 -29.5 -31.5q-15.5 -11.5 -29.5 -18.5q-23 -11 -47.5 -13.5q-24.5 -2.5 -38.5 -2.5q-41 0 -74 12q-33 12 -61 39q-27 27 -44 67.5q-17 40.5 -17 94.5q0 55 19 108q19 53 58 92q35 35 76.5 49q41.5 14 83.5 14q12 0 29.5 -2q17.5 -2 37 -9.5q19.5 -7.5 39.5 -21q20 -13.5 38 -36.5zM326 337q-32 0 -51.5 -11q-19.5 -11 -30.5 -22q-17 -17 -26.5 -40q-9.5 -23 -9.5 -51q0 -29 10 -47.5q10 -18.5 21 -29.5q11 -11 29 -19q18 -8 45 -8q29 0 49.5 10q20.5 10 33.5 24q17 17 26 43q9 26 9 49q0 26 -9.5 44q-9.5 18 -19.5 28q-11 11 -29.5 20.5t-46.5 9.5z" />
<glyph unicode="&#274;" horiz-adv-x="502" d="M504 537h-218l-16 -129h210l-16 -130h-210l-18 -148h222l-16 -130h-226h-146l82 667h368zM157 845h388l-12 -92l-388 0z" />
<glyph unicode="&#275;" horiz-adv-x="542" d="M399 283q-2 16 -9.5 32q-7.5 16 -19.5 26q-12 10 -28.5 14q-16.5 4 -30.5 4q-26 0 -42.5 -9q-16.5 -9 -25.5 -18q-8 -9 -15 -21.5q-7 -12.5 -10 -27.5zM204 195q-1 -17 4 -35.5q5 -18.5 14 -31.5q14 -20 33 -25.5q19 -5.5 36 -5.5q13 0 28 2q15 2 29 11q10 7 18 18q8 11 13 22l145 -12q-14 -34 -35.5 -63.5q-21.5 -29.5 -45.5 -47.5q-19 -14 -39.5 -22.5q-20.5 -8.5 -40.5 -13q-20 -4.5 -39 -5.5q-19 -1 -34 -1q-21 0 -43 2q-22 2 -44.5 8q-22.5 6 -44.5 18q-22 12 -42 32q-32 32 -44 71.5q-12 39.5 -12 84.5q0 37 7 67.5q7 30.5 18 55q11 24.5 24.5 43.5q13.5 19 27.5 32q41 38 88 50q47 12 89 12q57 0 99 -16q42 -16 68 -41q22 -22 34.5 -50q12.5 -28 18 -56.5q5.5 -28.5 5.5 -55.5q0 -27 -2 -47zM153 633h380l-11 -90l-380 0z" />
<glyph unicode="&#278;" horiz-adv-x="502" d="M504 537h-218l-16 -129h210l-16 -130h-210l-18 -148h222l-16 -130h-226h-146l82 667h368zM259 815q0 36 24.5 60.5q24.5 24.5 60.5 24.5q36 0 60.5 -24.5q24.5 -24.5 24.5 -60.5q0 -36 -24.5 -60.5q-24.5 -24.5 -60.5 -24.5q-36 0 -60.5 24.5t-24.5 60.5z" />
<glyph unicode="&#279;" horiz-adv-x="542" d="M399 283q-2 16 -9.5 32q-7.5 16 -19.5 26q-12 10 -28.5 14q-16.5 4 -30.5 4q-26 0 -42.5 -9q-16.5 -9 -25.5 -18q-8 -9 -15 -21.5q-7 -12.5 -10 -27.5zM204 195q-1 -17 4 -35.5q5 -18.5 14 -31.5q14 -20 33 -25.5q19 -5.5 36 -5.5q13 0 28 2q15 2 29 11q10 7 18 18q8 11 13 22l145 -12q-14 -34 -35.5 -63.5q-21.5 -29.5 -45.5 -47.5q-19 -14 -39.5 -22.5q-20.5 -8.5 -40.5 -13q-20 -4.5 -39 -5.5q-19 -1 -34 -1q-21 0 -43 2q-22 2 -44.5 8q-22.5 6 -44.5 18q-22 12 -42 32q-32 32 -44 71.5q-12 39.5 -12 84.5q0 37 7 67.5q7 30.5 18 55q11 24.5 24.5 43.5q13.5 19 27.5 32q41 38 88 50q47 12 89 12q57 0 99 -16q42 -16 68 -41q22 -22 34.5 -50q12.5 -28 18 -56.5q5.5 -28.5 5.5 -55.5q0 -27 -2 -47zM257 603q0 35 24 59q24 24 59 24q35 0 59 -24q24 -24 24 -59q0 -35 -24 -59q-24 -24 -59 -24q-35 0 -59 24t-24 59z" />
<glyph unicode="&#280;" horiz-adv-x="502" d="M504 537h-218l-16 -129h210l-16 -130h-210l-18 -148h222l-16 -130h-40q-8 -8 -18.5 -20q-10.5 -12 -16.5 -20q-5 -7 -12 -18.5q-7 -11.5 -7 -23.5q0 -6 2 -12.5q2 -6.5 7 -10.5q7 -6 16 -7.5q9 -1.5 11 -1.5q14 0 27.5 5q13.5 5 22.5 10l-27 -77q-31 -17 -66 -17q-13 0 -30 3.5q-17 3.5 -31 16.5q-7 6 -15 19q-8 13 -8 36q0 20 7 36q7 16 18 31q2 2 14 17q12 15 34 34l-109 0h-151l82 667l368 0z" />
<glyph unicode="&#281;" horiz-adv-x="542" d="M204 195q0 -17 4.5 -35.5q4.5 -18.5 13.5 -31.5q14 -20 33 -25.5q19 -5.5 36 -5.5q13 0 28 2q15 2 29 11q10 7 18 18q8 11 13 22l145 -12q-9 -49 -46 -86q-18 -18 -37 -30q-19 -12 -35 -20q-23 -13 -38 -21.5q-15 -8.5 -26 -19.5q-12 -12 -15.5 -22q-3.5 -10 -3.5 -18q0 -14 10 -22q9 -9 26 -9q8 0 23 2.5q15 2.5 29 12.5l-27 -77q-20 -11 -37 -14q-17 -3 -31 -3q-15 0 -30.5 3.5q-15.5 3.5 -28.5 14.5q-10 9 -16.5 21.5q-6.5 12.5 -6.5 29.5q0 33 18 59q8 11 19 23.5q11 12.5 21 21.5q-35 0 -63 5.5q-28 5.5 -50 14.5q-22 9 -37.5 20q-15.5 11 -25.5 21q-35 35 -45.5 76q-10.5 41 -10.5 75q0 68 21.5 119.5q21.5 51.5 55.5 83.5q37 35 81.5 48.5q44.5 13.5 94.5 13.5q58 0 100 -16q42 -16 68 -41q18 -17 29 -38q11 -21 17.5 -43.5q6.5 -22.5 9 -44.5q2.5 -22 2.5 -42q0 -11 -0.5 -21.5q-0.5 -10.5 -1.5 -19.5zM399 283q-2 16 -9.5 32q-7.5 16 -19.5 26q-12 10 -28.5 14q-16.5 4 -30.5 4q-26 0 -42.5 -9q-16.5 -9 -25.5 -18q-8 -9 -15 -21.5q-7 -12.5 -10 -27.5z" />
<glyph unicode="&#282;" horiz-adv-x="502" d="M504 537h-218l-16 -129h210l-16 -130h-210l-18 -148h222l-16 -130h-226h-146l82 667h368zM471 937l66 -70l-206 -141l-171 141l64 70l115 -93z" />
<glyph unicode="&#283;" horiz-adv-x="542" d="M399 283q-2 16 -9.5 32q-7.5 16 -19.5 26q-12 10 -28.5 14q-16.5 4 -30.5 4q-26 0 -42.5 -9q-16.5 -9 -25.5 -18q-8 -9 -15 -21.5q-7 -12.5 -10 -27.5zM204 195q-1 -17 4 -35.5q5 -18.5 14 -31.5q14 -20 33 -25.5q19 -5.5 36 -5.5q13 0 28 2q15 2 29 11q10 7 18 18q8 11 13 22l145 -12q-14 -34 -35.5 -63.5q-21.5 -29.5 -45.5 -47.5q-19 -14 -39.5 -22.5q-20.5 -8.5 -40.5 -13q-20 -4.5 -39 -5.5q-19 -1 -34 -1q-21 0 -43 2q-22 2 -44.5 8q-22.5 6 -44.5 18q-22 12 -42 32q-32 32 -44 71.5q-12 39.5 -12 84.5q0 37 7 67.5q7 30.5 18 55q11 24.5 24.5 43.5q13.5 19 27.5 32q41 38 88 50q47 12 89 12q57 0 99 -16q42 -16 68 -41q22 -22 34.5 -50q12.5 -28 18 -56.5q5.5 -28.5 5.5 -55.5q0 -27 -2 -47zM457 726l67 -68l-202 -143l-165 143l63 68l107 -95z" />
</font>
</defs>
</svg>
